solid 
 facet normal  9.954719e-01  0.000000e+00  9.505604e-02
   outer loop
     vertex  7.405084e-02 -1.587302e-02 -1.206720e-02
     vertex  7.601414e-02 -9.841270e-01 -3.262783e-02
     vertex  7.601414e-02 -1.587302e-02 -3.262783e-02
   endloop
 endfacet
 facet normal  9.954719e-01  0.000000e+00  9.505604e-02
   outer loop
     vertex  7.405084e-02 -1.587302e-02 -1.206720e-02
     vertex  7.405084e-02 -9.841270e-01 -1.206720e-02
     vertex  7.601414e-02 -9.841270e-01 -3.262783e-02
   endloop
 endfacet
 facet normal  9.594930e-01  0.000000e+00  2.817326e-01
   outer loop
     vertex  6.823189e-02 -1.587302e-02  7.750310e-03
     vertex  6.823189e-02 -9.841270e-01  7.750310e-03
     vertex  7.405084e-02 -9.841270e-01 -1.206720e-02
   endloop
 endfacet
 facet normal  9.594930e-01  0.000000e+00  2.817326e-01
   outer loop
     vertex  6.823189e-02 -1.587302e-02  7.750310e-03
     vertex  7.405084e-02 -9.841270e-01 -1.206720e-02
     vertex  7.405084e-02 -1.587302e-02 -1.206720e-02
   endloop
 endfacet
 facet normal  8.888354e-01  0.000000e+00  4.582265e-01
   outer loop
     vertex  5.876761e-02 -1.587302e-02  2.610845e-02
     vertex  5.876761e-02 -9.841270e-01  2.610845e-02
     vertex  6.823189e-02 -9.841270e-01  7.750310e-03
   endloop
 endfacet
 facet normal  8.888354e-01  0.000000e+00  4.582265e-01
   outer loop
     vertex  5.876761e-02 -1.587302e-02  2.610845e-02
     vertex  6.823189e-02 -9.841270e-01  7.750310e-03
     vertex  6.823189e-02 -1.587302e-02  7.750310e-03
   endloop
 endfacet
 facet normal  7.860531e-01  0.000000e+00  6.181590e-01
   outer loop
     vertex  4.600006e-02 -1.587302e-02  4.234371e-02
     vertex  4.600006e-02 -9.841270e-01  4.234371e-02
     vertex  5.876761e-02 -9.841270e-01  2.610845e-02
   endloop
 endfacet
 facet normal  7.860531e-01  0.000000e+00  6.181590e-01
   outer loop
     vertex  4.600006e-02 -1.587302e-02  4.234371e-02
     vertex  5.876761e-02 -9.841270e-01  2.610845e-02
     vertex  5.876761e-02 -1.587302e-02  2.610845e-02
   endloop
 endfacet
 facet normal  6.548607e-01  0.000000e+00  7.557496e-01
   outer loop
     vertex  3.039070e-02 -1.587302e-02  5.586931e-02
     vertex  3.039070e-02 -9.841270e-01  5.586931e-02
     vertex  4.600006e-02 -9.841270e-01  4.234371e-02
   endloop
 endfacet
 facet normal  6.548607e-01  0.000000e+00  7.557496e-01
   outer loop
     vertex  3.039070e-02 -1.587302e-02  5.586931e-02
     vertex  4.600006e-02 -9.841270e-01  4.234371e-02
     vertex  4.600006e-02 -1.587302e-02  4.234371e-02
   endloop
 endfacet
 facet normal  5.000000e-01  0.000000e+00  8.660254e-01
   outer loop
     vertex  1.250367e-02 -1.587302e-02  6.619639e-02
     vertex  1.250367e-02 -9.841270e-01  6.619639e-02
     vertex  3.039070e-02 -9.841270e-01  5.586931e-02
   endloop
 endfacet
 facet normal  5.000000e-01  0.000000e+00  8.660254e-01
   outer loop
     vertex  1.250367e-02 -1.587302e-02  6.619639e-02
     vertex  3.039070e-02 -9.841270e-01  5.586931e-02
     vertex  3.039070e-02 -1.587302e-02  5.586931e-02
   endloop
 endfacet
 facet normal  3.270680e-01  0.000000e+00  9.450008e-01
   outer loop
     vertex -7.014517e-03 -1.587302e-02  7.295170e-02
     vertex -7.014517e-03 -9.841270e-01  7.295170e-02
     vertex  1.250367e-02 -9.841270e-01  6.619639e-02
   endloop
 endfacet
 facet normal  1.423148e-01  0.000000e+00  9.898214e-01
   outer loop
     vertex -7.014517e-03 -1.587302e-02  7.295170e-02
     vertex -2.745844e-02 -9.841270e-01  7.589109e-02
     vertex -7.014517e-03 -9.841270e-01  7.295170e-02
   endloop
 endfacet
 facet normal  3.270680e-01  0.000000e+00  9.450008e-01
   outer loop
     vertex -7.014517e-03 -1.587302e-02  7.295170e-02
     vertex  1.250367e-02 -9.841270e-01  6.619639e-02
     vertex  1.250367e-02 -1.587302e-02  6.619639e-02
   endloop
 endfacet
 facet normal  1.423148e-01  0.000000e+00  9.898214e-01
   outer loop
     vertex -2.745844e-02 -1.587302e-02  7.589109e-02
     vertex -2.745844e-02 -9.841270e-01  7.589109e-02
     vertex -7.014517e-03 -1.587302e-02  7.295170e-02
   endloop
 endfacet
 facet normal -4.758192e-02  0.000000e+00  9.988673e-01
   outer loop
     vertex -4.808920e-02 -1.587302e-02  7.490833e-02
     vertex -2.745844e-02 -9.841270e-01  7.589109e-02
     vertex -2.745844e-02 -1.587302e-02  7.589109e-02
   endloop
 endfacet
 facet normal -4.758192e-02  0.000000e+00  9.988673e-01
   outer loop
     vertex -4.808920e-02 -1.587302e-02  7.490833e-02
     vertex -4.808920e-02 -9.841270e-01  7.490833e-02
     vertex -2.745844e-02 -9.841270e-01  7.589109e-02
   endloop
 endfacet
 facet normal -2.357589e-01  0.000000e+00  9.718116e-01
   outer loop
     vertex -4.808920e-02 -1.587302e-02  7.490833e-02
     vertex -6.816114e-02 -9.841270e-01  7.003892e-02
     vertex -4.808920e-02 -9.841270e-01  7.490833e-02
   endloop
 endfacet
 facet normal -2.357589e-01  0.000000e+00  9.718116e-01
   outer loop
     vertex -6.816114e-02 -1.587302e-02  7.003892e-02
     vertex -6.816114e-02 -9.841270e-01  7.003892e-02
     vertex -4.808920e-02 -1.587302e-02  7.490833e-02
   endloop
 endfacet
 facet normal -4.154150e-01  0.000000e+00  9.096320e-01
   outer loop
     vertex -6.816114e-02 -1.587302e-02  7.003892e-02
     vertex -8.694882e-02 -9.841270e-01  6.145888e-02
     vertex -6.816114e-02 -9.841270e-01  7.003892e-02
   endloop
 endfacet
 facet normal -4.154150e-01  0.000000e+00  9.096320e-01
   outer loop
     vertex -8.694882e-02 -1.587302e-02  6.145888e-02
     vertex -8.694882e-02 -9.841270e-01  6.145888e-02
     vertex -6.816114e-02 -1.587302e-02  7.003892e-02
   endloop
 endfacet
 facet normal -5.800569e-01  0.000000e+00  8.145760e-01
   outer loop
     vertex -1.037732e-01 -1.587302e-02  4.947829e-02
     vertex -1.037732e-01 -9.841270e-01  4.947829e-02
     vertex -8.694882e-02 -9.841270e-01  6.145888e-02
   endloop
 endfacet
 facet normal -5.800569e-01  0.000000e+00  8.145760e-01
   outer loop
     vertex -1.037732e-01 -1.587302e-02  4.947829e-02
     vertex -8.694882e-02 -9.841270e-01  6.145888e-02
     vertex -8.694882e-02 -1.587302e-02  6.145888e-02
   endloop
 endfacet
 facet normal -7.237340e-01  0.000000e+00  6.900790e-01
   outer loop
     vertex -1.180262e-01 -1.587302e-02  3.453018e-02
     vertex -1.180262e-01 -9.841270e-01  3.453018e-02
     vertex -1.037732e-01 -9.841270e-01  4.947829e-02
   endloop
 endfacet
 facet normal -8.412535e-01  0.000000e+00  5.406408e-01
   outer loop
     vertex -1.180262e-01 -1.587302e-02  3.453018e-02
     vertex -1.291927e-01 -9.841270e-01  1.715480e-02
     vertex -1.180262e-01 -9.841270e-01  3.453018e-02
   endloop
 endfacet
 facet normal -7.237340e-01  0.000000e+00  6.900790e-01
   outer loop
     vertex -1.180262e-01 -1.587302e-02  3.453018e-02
     vertex -1.037732e-01 -9.841270e-01  4.947829e-02
     vertex -1.037732e-01 -1.587302e-02  4.947829e-02
   endloop
 endfacet
 facet normal -8.412535e-01  0.000000e+00  5.406408e-01
   outer loop
     vertex -1.291927e-01 -1.587302e-02  1.715480e-02
     vertex -1.291927e-01 -9.841270e-01  1.715480e-02
     vertex -1.180262e-01 -1.587302e-02  3.453018e-02
   endloop
 endfacet
 facet normal -9.283679e-01  0.000000e+00  3.716625e-01
   outer loop
     vertex -1.368690e-01 -1.587302e-02 -2.019852e-03
     vertex -1.368690e-01 -9.841270e-01 -2.019852e-03
     vertex -1.291927e-01 -9.841270e-01  1.715480e-02
   endloop
 endfacet
 facet normal -9.819287e-01  0.000000e+00  1.892512e-01
   outer loop
     vertex -1.368690e-01 -1.587302e-02 -2.019852e-03
     vertex -1.407779e-01 -9.841270e-01 -2.230076e-02
     vertex -1.368690e-01 -9.841270e-01 -2.019852e-03
   endloop
 endfacet
 facet normal -9.283679e-01  0.000000e+00  3.716625e-01
   outer loop
     vertex -1.368690e-01 -1.587302e-02 -2.019852e-03
     vertex -1.291927e-01 -9.841270e-01  1.715480e-02
     vertex -1.291927e-01 -1.587302e-02  1.715480e-02
   endloop
 endfacet
 facet normal -1.000000e+00 -0.000000e+00 -2.687651e-15
   outer loop
     vertex -1.407779e-01 -1.587302e-02 -2.230076e-02
     vertex -1.407779e-01 -9.841270e-01 -4.295491e-02
     vertex -1.407779e-01 -9.841270e-01 -2.230076e-02
   endloop
 endfacet
 facet normal -9.819287e-01  0.000000e+00  1.892512e-01
   outer loop
     vertex -1.407779e-01 -1.587302e-02 -2.230076e-02
     vertex -1.407779e-01 -9.841270e-01 -2.230076e-02
     vertex -1.368690e-01 -1.587302e-02 -2.019852e-03
   endloop
 endfacet
 facet normal -1.000000e+00 -0.000000e+00 -2.687651e-15
   outer loop
     vertex -1.407779e-01 -1.587302e-02 -4.295491e-02
     vertex -1.407779e-01 -9.841270e-01 -4.295491e-02
     vertex -1.407779e-01 -1.587302e-02 -2.230076e-02
   endloop
 endfacet
 facet normal -9.819287e-01 -0.000000e+00 -1.892512e-01
   outer loop
     vertex -1.368690e-01 -1.587302e-02 -6.323582e-02
     vertex -1.368690e-01 -9.841270e-01 -6.323582e-02
     vertex -1.407779e-01 -9.841270e-01 -4.295491e-02
   endloop
 endfacet
 facet normal -9.819287e-01  0.000000e+00 -1.892512e-01
   outer loop
     vertex -1.368690e-01 -1.587302e-02 -6.323582e-02
     vertex -1.407779e-01 -9.841270e-01 -4.295491e-02
     vertex -1.407779e-01 -1.587302e-02 -4.295491e-02
   endloop
 endfacet
 facet normal -9.283679e-01 -0.000000e+00 -3.716625e-01
   outer loop
     vertex -1.291927e-01 -1.587302e-02 -8.241047e-02
     vertex -1.291927e-01 -9.841270e-01 -8.241047e-02
     vertex -1.368690e-01 -9.841270e-01 -6.323582e-02
   endloop
 endfacet
 facet normal -9.283679e-01  0.000000e+00 -3.716625e-01
   outer loop
     vertex -1.291927e-01 -1.587302e-02 -8.241047e-02
     vertex -1.368690e-01 -9.841270e-01 -6.323582e-02
     vertex -1.368690e-01 -1.587302e-02 -6.323582e-02
   endloop
 endfacet
 facet normal -8.412535e-01 -0.000000e+00 -5.406408e-01
   outer loop
     vertex -1.180262e-01 -1.587302e-02 -9.978585e-02
     vertex -1.180262e-01 -9.841270e-01 -9.978585e-02
     vertex -1.291927e-01 -9.841270e-01 -8.241047e-02
   endloop
 endfacet
 facet normal -8.412535e-01  0.000000e+00 -5.406408e-01
   outer loop
     vertex -1.180262e-01 -1.587302e-02 -9.978585e-02
     vertex -1.291927e-01 -9.841270e-01 -8.241047e-02
     vertex -1.291927e-01 -1.587302e-02 -8.241047e-02
   endloop
 endfacet
 facet normal -7.237340e-01 -0.000000e+00 -6.900790e-01
   outer loop
     vertex -1.037732e-01 -1.587302e-02 -1.147340e-01
     vertex -1.037732e-01 -9.841270e-01 -1.147340e-01
     vertex -1.180262e-01 -9.841270e-01 -9.978585e-02
   endloop
 endfacet
 facet normal -7.237340e-01  0.000000e+00 -6.900790e-01
   outer loop
     vertex -1.037732e-01 -1.587302e-02 -1.147340e-01
     vertex -1.180262e-01 -9.841270e-01 -9.978585e-02
     vertex -1.180262e-01 -1.587302e-02 -9.978585e-02
   endloop
 endfacet
 facet normal -5.800569e-01 -0.000000e+00 -8.145760e-01
   outer loop
     vertex -8.694882e-02 -1.587302e-02 -1.267145e-01
     vertex -8.694882e-02 -9.841270e-01 -1.267145e-01
     vertex -1.037732e-01 -9.841270e-01 -1.147340e-01
   endloop
 endfacet
 facet normal -5.800569e-01  0.000000e+00 -8.145760e-01
   outer loop
     vertex -8.694882e-02 -1.587302e-02 -1.267145e-01
     vertex -1.037732e-01 -9.841270e-01 -1.147340e-01
     vertex -1.037732e-01 -1.587302e-02 -1.147340e-01
   endloop
 endfacet
 facet normal -4.154150e-01 -0.000000e+00 -9.096320e-01
   outer loop
     vertex -6.816114e-02 -1.587302e-02 -1.352946e-01
     vertex -6.816114e-02 -9.841270e-01 -1.352946e-01
     vertex -8.694882e-02 -9.841270e-01 -1.267145e-01
   endloop
 endfacet
 facet normal -4.154150e-01  0.000000e+00 -9.096320e-01
   outer loop
     vertex -6.816114e-02 -1.587302e-02 -1.352946e-01
     vertex -8.694882e-02 -9.841270e-01 -1.267145e-01
     vertex -8.694882e-02 -1.587302e-02 -1.267145e-01
   endloop
 endfacet
 facet normal -2.357589e-01 -0.000000e+00 -9.718116e-01
   outer loop
     vertex -4.808920e-02 -1.587302e-02 -1.401640e-01
     vertex -4.808920e-02 -9.841270e-01 -1.401640e-01
     vertex -6.816114e-02 -9.841270e-01 -1.352946e-01
   endloop
 endfacet
 facet normal -4.758192e-02 -0.000000e+00 -9.988673e-01
   outer loop
     vertex -4.808920e-02 -1.587302e-02 -1.401640e-01
     vertex -2.745844e-02 -9.841270e-01 -1.411468e-01
     vertex -4.808920e-02 -9.841270e-01 -1.401640e-01
   endloop
 endfacet
 facet normal -2.357589e-01  0.000000e+00 -9.718116e-01
   outer loop
     vertex -4.808920e-02 -1.587302e-02 -1.401640e-01
     vertex -6.816114e-02 -9.841270e-01 -1.352946e-01
     vertex -6.816114e-02 -1.587302e-02 -1.352946e-01
   endloop
 endfacet
 facet normal -4.758192e-02 -0.000000e+00 -9.988673e-01
   outer loop
     vertex -2.745844e-02 -1.587302e-02 -1.411468e-01
     vertex -2.745844e-02 -9.841270e-01 -1.411468e-01
     vertex -4.808920e-02 -1.587302e-02 -1.401640e-01
   endloop
 endfacet
 facet normal  1.423148e-01  0.000000e+00 -9.898214e-01
   outer loop
     vertex -7.014517e-03 -1.587302e-02 -1.382074e-01
     vertex -7.014517e-03 -9.841270e-01 -1.382074e-01
     vertex -2.745844e-02 -9.841270e-01 -1.411468e-01
   endloop
 endfacet
 facet normal  1.423148e-01  0.000000e+00 -9.898214e-01
   outer loop
     vertex -7.014517e-03 -1.587302e-02 -1.382074e-01
     vertex -2.745844e-02 -9.841270e-01 -1.411468e-01
     vertex -2.745844e-02 -1.587302e-02 -1.411468e-01
   endloop
 endfacet
 facet normal  3.270680e-01  0.000000e+00 -9.450008e-01
   outer loop
     vertex  1.250367e-02 -1.587302e-02 -1.314521e-01
     vertex  1.250367e-02 -9.841270e-01 -1.314521e-01
     vertex -7.014517e-03 -9.841270e-01 -1.382074e-01
   endloop
 endfacet
 facet normal  5.000000e-01  0.000000e+00 -8.660254e-01
   outer loop
     vertex  1.250367e-02 -1.587302e-02 -1.314521e-01
     vertex  3.039070e-02 -9.841270e-01 -1.211250e-01
     vertex  1.250367e-02 -9.841270e-01 -1.314521e-01
   endloop
 endfacet
 facet normal  3.270680e-01  0.000000e+00 -9.450008e-01
   outer loop
     vertex  1.250367e-02 -1.587302e-02 -1.314521e-01
     vertex -7.014517e-03 -9.841270e-01 -1.382074e-01
     vertex -7.014517e-03 -1.587302e-02 -1.382074e-01
   endloop
 endfacet
 facet normal  5.000000e-01  0.000000e+00 -8.660254e-01
   outer loop
     vertex  3.039070e-02 -1.587302e-02 -1.211250e-01
     vertex  3.039070e-02 -9.841270e-01 -1.211250e-01
     vertex  1.250367e-02 -1.587302e-02 -1.314521e-01
   endloop
 endfacet
 facet normal  6.548607e-01  0.000000e+00 -7.557496e-01
   outer loop
     vertex  4.600006e-02 -1.587302e-02 -1.075994e-01
     vertex  4.600006e-02 -9.841270e-01 -1.075994e-01
     vertex  3.039070e-02 -9.841270e-01 -1.211250e-01
   endloop
 endfacet
 facet normal  6.548607e-01  0.000000e+00 -7.557496e-01
   outer loop
     vertex  4.600006e-02 -1.587302e-02 -1.075994e-01
     vertex  3.039070e-02 -9.841270e-01 -1.211250e-01
     vertex  3.039070e-02 -1.587302e-02 -1.211250e-01
   endloop
 endfacet
 facet normal  7.860531e-01  0.000000e+00 -6.181590e-01
   outer loop
     vertex  5.876761e-02 -1.587302e-02 -9.136412e-02
     vertex  5.876761e-02 -9.841270e-01 -9.136412e-02
     vertex  4.600006e-02 -9.841270e-01 -1.075994e-01
   endloop
 endfacet
 facet normal  8.888354e-01  0.000000e+00 -4.582265e-01
   outer loop
     vertex  5.876761e-02 -1.587302e-02 -9.136412e-02
     vertex  6.823189e-02 -9.841270e-01 -7.300598e-02
     vertex  5.876761e-02 -9.841270e-01 -9.136412e-02
   endloop
 endfacet
 facet normal  7.860531e-01  0.000000e+00 -6.181590e-01
   outer loop
     vertex  5.876761e-02 -1.587302e-02 -9.136412e-02
     vertex  4.600006e-02 -9.841270e-01 -1.075994e-01
     vertex  4.600006e-02 -1.587302e-02 -1.075994e-01
   endloop
 endfacet
 facet normal  8.888354e-01  0.000000e+00 -4.582265e-01
   outer loop
     vertex  6.823189e-02 -1.587302e-02 -7.300598e-02
     vertex  6.823189e-02 -9.841270e-01 -7.300598e-02
     vertex  5.876761e-02 -1.587302e-02 -9.136412e-02
   endloop
 endfacet
 facet normal  9.594930e-01  0.000000e+00 -2.817326e-01
   outer loop
     vertex  7.405084e-02 -1.587302e-02 -5.318846e-02
     vertex  7.405084e-02 -9.841270e-01 -5.318846e-02
     vertex  6.823189e-02 -9.841270e-01 -7.300598e-02
   endloop
 endfacet
 facet normal  9.594930e-01  0.000000e+00 -2.817326e-01
   outer loop
     vertex  7.405084e-02 -1.587302e-02 -5.318846e-02
     vertex  6.823189e-02 -9.841270e-01 -7.300598e-02
     vertex  6.823189e-02 -1.587302e-02 -7.300598e-02
   endloop
 endfacet
 facet normal  9.954719e-01  0.000000e+00 -9.505604e-02
   outer loop
     vertex  7.601414e-02 -1.587302e-02 -3.262783e-02
     vertex  7.405084e-02 -9.841270e-01 -5.318846e-02
     vertex  7.405084e-02 -1.587302e-02 -5.318846e-02
   endloop
 endfacet
 facet normal  9.954719e-01  0.000000e+00 -9.505604e-02
   outer loop
     vertex  7.601414e-02 -1.587302e-02 -3.262783e-02
     vertex  7.601414e-02 -9.841270e-01 -3.262783e-02
     vertex  7.405084e-02 -9.841270e-01 -5.318846e-02
   endloop
 endfacet
 facet normal  9.954719e-01  0.000000e+00  9.505604e-02
   outer loop
     vertex  7.405084e-02 -1.587302e-02 -1.206720e-02
     vertex  7.601414e-02 -1.587302e-02 -3.262783e-02
     vertex  7.601414e-02  9.841270e-01 -3.262783e-02
   endloop
 endfacet
 facet normal  9.954719e-01 -0.000000e+00  9.505604e-02
   outer loop
     vertex  7.405084e-02 -1.587302e-02 -1.206720e-02
     vertex  7.601414e-02  9.841270e-01 -3.262783e-02
     vertex  7.405084e-02  9.841270e-01 -1.206720e-02
   endloop
 endfacet
 facet normal  9.594930e-01 -0.000000e+00  2.817326e-01
   outer loop
     vertex  6.823189e-02 -1.587302e-02  7.750310e-03
     vertex  7.405084e-02  9.841270e-01 -1.206720e-02
     vertex  6.823189e-02  9.841270e-01  7.750310e-03
   endloop
 endfacet
 facet normal  9.594930e-01  0.000000e+00  2.817326e-01
   outer loop
     vertex  6.823189e-02 -1.587302e-02  7.750310e-03
     vertex  7.405084e-02 -1.587302e-02 -1.206720e-02
     vertex  7.405084e-02  9.841270e-01 -1.206720e-02
   endloop
 endfacet
 facet normal  8.888354e-01 -0.000000e+00  4.582265e-01
   outer loop
     vertex  5.876761e-02 -1.587302e-02  2.610845e-02
     vertex  6.823189e-02  9.841270e-01  7.750310e-03
     vertex  5.876761e-02  9.841270e-01  2.610845e-02
   endloop
 endfacet
 facet normal  8.888354e-01  0.000000e+00  4.582265e-01
   outer loop
     vertex  5.876761e-02 -1.587302e-02  2.610845e-02
     vertex  6.823189e-02 -1.587302e-02  7.750310e-03
     vertex  6.823189e-02  9.841270e-01  7.750310e-03
   endloop
 endfacet
 facet normal  7.860531e-01 -0.000000e+00  6.181590e-01
   outer loop
     vertex  4.600006e-02 -1.587302e-02  4.234371e-02
     vertex  5.876761e-02  9.841270e-01  2.610845e-02
     vertex  4.600006e-02  9.841270e-01  4.234371e-02
   endloop
 endfacet
 facet normal  7.860531e-01  0.000000e+00  6.181590e-01
   outer loop
     vertex  4.600006e-02 -1.587302e-02  4.234371e-02
     vertex  5.876761e-02 -1.587302e-02  2.610845e-02
     vertex  5.876761e-02  9.841270e-01  2.610845e-02
   endloop
 endfacet
 facet normal  6.548607e-01 -0.000000e+00  7.557496e-01
   outer loop
     vertex  3.039070e-02 -1.587302e-02  5.586931e-02
     vertex  4.600006e-02  9.841270e-01  4.234371e-02
     vertex  3.039070e-02  9.841270e-01  5.586931e-02
   endloop
 endfacet
 facet normal  6.548607e-01  0.000000e+00  7.557496e-01
   outer loop
     vertex  3.039070e-02 -1.587302e-02  5.586931e-02
     vertex  4.600006e-02 -1.587302e-02  4.234371e-02
     vertex  4.600006e-02  9.841270e-01  4.234371e-02
   endloop
 endfacet
 facet normal  5.000000e-01 -0.000000e+00  8.660254e-01
   outer loop
     vertex  1.250367e-02 -1.587302e-02  6.619639e-02
     vertex  3.039070e-02  9.841270e-01  5.586931e-02
     vertex  1.250367e-02  9.841270e-01  6.619639e-02
   endloop
 endfacet
 facet normal  5.000000e-01  0.000000e+00  8.660254e-01
   outer loop
     vertex  1.250367e-02 -1.587302e-02  6.619639e-02
     vertex  3.039070e-02 -1.587302e-02  5.586931e-02
     vertex  3.039070e-02  9.841270e-01  5.586931e-02
   endloop
 endfacet
 facet normal  3.270680e-01 -0.000000e+00  9.450008e-01
   outer loop
     vertex -7.014517e-03 -1.587302e-02  7.295170e-02
     vertex  1.250367e-02  9.841270e-01  6.619639e-02
     vertex -7.014517e-03  9.841270e-01  7.295170e-02
   endloop
 endfacet
 facet normal  3.270680e-01  0.000000e+00  9.450008e-01
   outer loop
     vertex -7.014517e-03 -1.587302e-02  7.295170e-02
     vertex  1.250367e-02 -1.587302e-02  6.619639e-02
     vertex  1.250367e-02  9.841270e-01  6.619639e-02
   endloop
 endfacet
 facet normal  1.423148e-01  0.000000e+00  9.898214e-01
   outer loop
     vertex -2.745844e-02 -1.587302e-02  7.589109e-02
     vertex -7.014517e-03 -1.587302e-02  7.295170e-02
     vertex -7.014517e-03  9.841270e-01  7.295170e-02
   endloop
 endfacet
 facet normal  1.423148e-01 -0.000000e+00  9.898214e-01
   outer loop
     vertex -2.745844e-02 -1.587302e-02  7.589109e-02
     vertex -7.014517e-03  9.841270e-01  7.295170e-02
     vertex -2.745844e-02  9.841270e-01  7.589109e-02
   endloop
 endfacet
 facet normal -4.758192e-02  0.000000e+00  9.988673e-01
   outer loop
     vertex -4.808920e-02 -1.587302e-02  7.490833e-02
     vertex -2.745844e-02 -1.587302e-02  7.589109e-02
     vertex -2.745844e-02  9.841270e-01  7.589109e-02
   endloop
 endfacet
 facet normal -4.758192e-02  0.000000e+00  9.988673e-01
   outer loop
     vertex -4.808920e-02 -1.587302e-02  7.490833e-02
     vertex -2.745844e-02  9.841270e-01  7.589109e-02
     vertex -4.808920e-02  9.841270e-01  7.490833e-02
   endloop
 endfacet
 facet normal -2.357589e-01  0.000000e+00  9.718116e-01
   outer loop
     vertex -4.808920e-02 -1.587302e-02  7.490833e-02
     vertex -4.808920e-02  9.841270e-01  7.490833e-02
     vertex -6.816114e-02  9.841270e-01  7.003892e-02
   endloop
 endfacet
 facet normal -2.357589e-01  0.000000e+00  9.718116e-01
   outer loop
     vertex -6.816114e-02 -1.587302e-02  7.003892e-02
     vertex -4.808920e-02 -1.587302e-02  7.490833e-02
     vertex -6.816114e-02  9.841270e-01  7.003892e-02
   endloop
 endfacet
 facet normal -4.154150e-01  0.000000e+00  9.096320e-01
   outer loop
     vertex -8.694882e-02 -1.587302e-02  6.145888e-02
     vertex -6.816114e-02  9.841270e-01  7.003892e-02
     vertex -8.694882e-02  9.841270e-01  6.145888e-02
   endloop
 endfacet
 facet normal -4.154150e-01  0.000000e+00  9.096320e-01
   outer loop
     vertex -8.694882e-02 -1.587302e-02  6.145888e-02
     vertex -6.816114e-02 -1.587302e-02  7.003892e-02
     vertex -6.816114e-02  9.841270e-01  7.003892e-02
   endloop
 endfacet
 facet normal -5.800569e-01  0.000000e+00  8.145760e-01
   outer loop
     vertex -1.037732e-01 -1.587302e-02  4.947829e-02
     vertex -8.694882e-02  9.841270e-01  6.145888e-02
     vertex -1.037732e-01  9.841270e-01  4.947829e-02
   endloop
 endfacet
 facet normal -5.800569e-01  0.000000e+00  8.145760e-01
   outer loop
     vertex -1.037732e-01 -1.587302e-02  4.947829e-02
     vertex -8.694882e-02 -1.587302e-02  6.145888e-02
     vertex -8.694882e-02  9.841270e-01  6.145888e-02
   endloop
 endfacet
 facet normal -7.237340e-01  0.000000e+00  6.900790e-01
   outer loop
     vertex -1.180262e-01 -1.587302e-02  3.453018e-02
     vertex -1.037732e-01  9.841270e-01  4.947829e-02
     vertex -1.180262e-01  9.841270e-01  3.453018e-02
   endloop
 endfacet
 facet normal -7.237340e-01  0.000000e+00  6.900790e-01
   outer loop
     vertex -1.180262e-01 -1.587302e-02  3.453018e-02
     vertex -1.037732e-01 -1.587302e-02  4.947829e-02
     vertex -1.037732e-01  9.841270e-01  4.947829e-02
   endloop
 endfacet
 facet normal -8.412535e-01  0.000000e+00  5.406408e-01
   outer loop
     vertex -1.291927e-01 -1.587302e-02  1.715480e-02
     vertex -1.180262e-01  9.841270e-01  3.453018e-02
     vertex -1.291927e-01  9.841270e-01  1.715480e-02
   endloop
 endfacet
 facet normal -8.412535e-01  0.000000e+00  5.406408e-01
   outer loop
     vertex -1.291927e-01 -1.587302e-02  1.715480e-02
     vertex -1.180262e-01 -1.587302e-02  3.453018e-02
     vertex -1.180262e-01  9.841270e-01  3.453018e-02
   endloop
 endfacet
 facet normal -9.283679e-01  0.000000e+00  3.716625e-01
   outer loop
     vertex -1.368690e-01 -1.587302e-02 -2.019852e-03
     vertex -1.291927e-01  9.841270e-01  1.715480e-02
     vertex -1.368690e-01  9.841270e-01 -2.019852e-03
   endloop
 endfacet
 facet normal -9.819287e-01  0.000000e+00  1.892512e-01
   outer loop
     vertex -1.368690e-01 -1.587302e-02 -2.019852e-03
     vertex -1.368690e-01  9.841270e-01 -2.019852e-03
     vertex -1.407779e-01  9.841270e-01 -2.230076e-02
   endloop
 endfacet
 facet normal -9.283679e-01  0.000000e+00  3.716625e-01
   outer loop
     vertex -1.368690e-01 -1.587302e-02 -2.019852e-03
     vertex -1.291927e-01 -1.587302e-02  1.715480e-02
     vertex -1.291927e-01  9.841270e-01  1.715480e-02
   endloop
 endfacet
 facet normal -9.819287e-01  0.000000e+00  1.892512e-01
   outer loop
     vertex -1.407779e-01 -1.587302e-02 -2.230076e-02
     vertex -1.368690e-01 -1.587302e-02 -2.019852e-03
     vertex -1.407779e-01  9.841270e-01 -2.230076e-02
   endloop
 endfacet
 facet normal -1.000000e+00  0.000000e+00 -2.687651e-15
   outer loop
     vertex -1.407779e-01 -1.587302e-02 -4.295491e-02
     vertex -1.407779e-01  9.841270e-01 -2.230076e-02
     vertex -1.407779e-01  9.841270e-01 -4.295491e-02
   endloop
 endfacet
 facet normal -1.000000e+00  0.000000e+00 -2.687651e-15
   outer loop
     vertex -1.407779e-01 -1.587302e-02 -4.295491e-02
     vertex -1.407779e-01 -1.587302e-02 -2.230076e-02
     vertex -1.407779e-01  9.841270e-01 -2.230076e-02
   endloop
 endfacet
 facet normal -9.819287e-01  0.000000e+00 -1.892512e-01
   outer loop
     vertex -1.368690e-01 -1.587302e-02 -6.323582e-02
     vertex -1.407779e-01  9.841270e-01 -4.295491e-02
     vertex -1.368690e-01  9.841270e-01 -6.323582e-02
   endloop
 endfacet
 facet normal -9.283679e-01  0.000000e+00 -3.716625e-01
   outer loop
     vertex -1.368690e-01 -1.587302e-02 -6.323582e-02
     vertex -1.368690e-01  9.841270e-01 -6.323582e-02
     vertex -1.291927e-01  9.841270e-01 -8.241047e-02
   endloop
 endfacet
 facet normal -9.819287e-01  0.000000e+00 -1.892512e-01
   outer loop
     vertex -1.368690e-01 -1.587302e-02 -6.323582e-02
     vertex -1.407779e-01 -1.587302e-02 -4.295491e-02
     vertex -1.407779e-01  9.841270e-01 -4.295491e-02
   endloop
 endfacet
 facet normal -9.283679e-01  0.000000e+00 -3.716625e-01
   outer loop
     vertex -1.291927e-01 -1.587302e-02 -8.241047e-02
     vertex -1.368690e-01 -1.587302e-02 -6.323582e-02
     vertex -1.291927e-01  9.841270e-01 -8.241047e-02
   endloop
 endfacet
 facet normal -8.412535e-01  0.000000e+00 -5.406408e-01
   outer loop
     vertex -1.180262e-01 -1.587302e-02 -9.978585e-02
     vertex -1.291927e-01  9.841270e-01 -8.241047e-02
     vertex -1.180262e-01  9.841270e-01 -9.978585e-02
   endloop
 endfacet
 facet normal -8.412535e-01  0.000000e+00 -5.406408e-01
   outer loop
     vertex -1.180262e-01 -1.587302e-02 -9.978585e-02
     vertex -1.291927e-01 -1.587302e-02 -8.241047e-02
     vertex -1.291927e-01  9.841270e-01 -8.241047e-02
   endloop
 endfacet
 facet normal -7.237340e-01  0.000000e+00 -6.900790e-01
   outer loop
     vertex -1.037732e-01 -1.587302e-02 -1.147340e-01
     vertex -1.180262e-01  9.841270e-01 -9.978585e-02
     vertex -1.037732e-01  9.841270e-01 -1.147340e-01
   endloop
 endfacet
 facet normal -5.800569e-01  0.000000e+00 -8.145760e-01
   outer loop
     vertex -1.037732e-01 -1.587302e-02 -1.147340e-01
     vertex -1.037732e-01  9.841270e-01 -1.147340e-01
     vertex -8.694882e-02  9.841270e-01 -1.267145e-01
   endloop
 endfacet
 facet normal -7.237340e-01  0.000000e+00 -6.900790e-01
   outer loop
     vertex -1.037732e-01 -1.587302e-02 -1.147340e-01
     vertex -1.180262e-01 -1.587302e-02 -9.978585e-02
     vertex -1.180262e-01  9.841270e-01 -9.978585e-02
   endloop
 endfacet
 facet normal -4.154150e-01  0.000000e+00 -9.096320e-01
   outer loop
     vertex -8.694882e-02 -1.587302e-02 -1.267145e-01
     vertex -8.694882e-02  9.841270e-01 -1.267145e-01
     vertex -6.816114e-02  9.841270e-01 -1.352946e-01
   endloop
 endfacet
 facet normal -5.800569e-01  0.000000e+00 -8.145760e-01
   outer loop
     vertex -8.694882e-02 -1.587302e-02 -1.267145e-01
     vertex -1.037732e-01 -1.587302e-02 -1.147340e-01
     vertex -8.694882e-02  9.841270e-01 -1.267145e-01
   endloop
 endfacet
 facet normal -2.357589e-01  0.000000e+00 -9.718116e-01
   outer loop
     vertex -6.816114e-02 -1.587302e-02 -1.352946e-01
     vertex -6.816114e-02  9.841270e-01 -1.352946e-01
     vertex -4.808920e-02  9.841270e-01 -1.401640e-01
   endloop
 endfacet
 facet normal -4.154150e-01  0.000000e+00 -9.096320e-01
   outer loop
     vertex -6.816114e-02 -1.587302e-02 -1.352946e-01
     vertex -8.694882e-02 -1.587302e-02 -1.267145e-01
     vertex -6.816114e-02  9.841270e-01 -1.352946e-01
   endloop
 endfacet
 facet normal -2.357589e-01  0.000000e+00 -9.718116e-01
   outer loop
     vertex -4.808920e-02 -1.587302e-02 -1.401640e-01
     vertex -6.816114e-02 -1.587302e-02 -1.352946e-01
     vertex -4.808920e-02  9.841270e-01 -1.401640e-01
   endloop
 endfacet
 facet normal -4.758192e-02  0.000000e+00 -9.988673e-01
   outer loop
     vertex -2.745844e-02 -1.587302e-02 -1.411468e-01
     vertex -4.808920e-02  9.841270e-01 -1.401640e-01
     vertex -2.745844e-02  9.841270e-01 -1.411468e-01
   endloop
 endfacet
 facet normal -4.758192e-02  0.000000e+00 -9.988673e-01
   outer loop
     vertex -2.745844e-02 -1.587302e-02 -1.411468e-01
     vertex -4.808920e-02 -1.587302e-02 -1.401640e-01
     vertex -4.808920e-02  9.841270e-01 -1.401640e-01
   endloop
 endfacet
 facet normal  1.423148e-01  0.000000e+00 -9.898214e-01
   outer loop
     vertex -7.014517e-03 -1.587302e-02 -1.382074e-01
     vertex -2.745844e-02  9.841270e-01 -1.411468e-01
     vertex -7.014517e-03  9.841270e-01 -1.382074e-01
   endloop
 endfacet
 facet normal  1.423148e-01  0.000000e+00 -9.898214e-01
   outer loop
     vertex -7.014517e-03 -1.587302e-02 -1.382074e-01
     vertex -2.745844e-02 -1.587302e-02 -1.411468e-01
     vertex -2.745844e-02  9.841270e-01 -1.411468e-01
   endloop
 endfacet
 facet normal  3.270680e-01  0.000000e+00 -9.450008e-01
   outer loop
     vertex  1.250367e-02 -1.587302e-02 -1.314521e-01
     vertex -7.014517e-03  9.841270e-01 -1.382074e-01
     vertex  1.250367e-02  9.841270e-01 -1.314521e-01
   endloop
 endfacet
 facet normal  5.000000e-01  0.000000e+00 -8.660254e-01
   outer loop
     vertex  1.250367e-02 -1.587302e-02 -1.314521e-01
     vertex  1.250367e-02  9.841270e-01 -1.314521e-01
     vertex  3.039070e-02  9.841270e-01 -1.211250e-01
   endloop
 endfacet
 facet normal  3.270680e-01  0.000000e+00 -9.450008e-01
   outer loop
     vertex  1.250367e-02 -1.587302e-02 -1.314521e-01
     vertex -7.014517e-03 -1.587302e-02 -1.382074e-01
     vertex -7.014517e-03  9.841270e-01 -1.382074e-01
   endloop
 endfacet
 facet normal  5.000000e-01  0.000000e+00 -8.660254e-01
   outer loop
     vertex  3.039070e-02 -1.587302e-02 -1.211250e-01
     vertex  1.250367e-02 -1.587302e-02 -1.314521e-01
     vertex  3.039070e-02  9.841270e-01 -1.211250e-01
   endloop
 endfacet
 facet normal  6.548607e-01  0.000000e+00 -7.557496e-01
   outer loop
     vertex  4.600006e-02 -1.587302e-02 -1.075994e-01
     vertex  3.039070e-02  9.841270e-01 -1.211250e-01
     vertex  4.600006e-02  9.841270e-01 -1.075994e-01
   endloop
 endfacet
 facet normal  7.860531e-01  0.000000e+00 -6.181590e-01
   outer loop
     vertex  4.600006e-02 -1.587302e-02 -1.075994e-01
     vertex  4.600006e-02  9.841270e-01 -1.075994e-01
     vertex  5.876761e-02  9.841270e-01 -9.136412e-02
   endloop
 endfacet
 facet normal  6.548607e-01  0.000000e+00 -7.557496e-01
   outer loop
     vertex  4.600006e-02 -1.587302e-02 -1.075994e-01
     vertex  3.039070e-02 -1.587302e-02 -1.211250e-01
     vertex  3.039070e-02  9.841270e-01 -1.211250e-01
   endloop
 endfacet
 facet normal  7.860531e-01  0.000000e+00 -6.181590e-01
   outer loop
     vertex  5.876761e-02 -1.587302e-02 -9.136412e-02
     vertex  4.600006e-02 -1.587302e-02 -1.075994e-01
     vertex  5.876761e-02  9.841270e-01 -9.136412e-02
   endloop
 endfacet
 facet normal  8.888354e-01  0.000000e+00 -4.582265e-01
   outer loop
     vertex  6.823189e-02 -1.587302e-02 -7.300598e-02
     vertex  5.876761e-02  9.841270e-01 -9.136412e-02
     vertex  6.823189e-02  9.841270e-01 -7.300598e-02
   endloop
 endfacet
 facet normal  8.888354e-01  0.000000e+00 -4.582265e-01
   outer loop
     vertex  6.823189e-02 -1.587302e-02 -7.300598e-02
     vertex  5.876761e-02 -1.587302e-02 -9.136412e-02
     vertex  5.876761e-02  9.841270e-01 -9.136412e-02
   endloop
 endfacet
 facet normal  9.594930e-01  0.000000e+00 -2.817326e-01
   outer loop
     vertex  7.405084e-02 -1.587302e-02 -5.318846e-02
     vertex  6.823189e-02  9.841270e-01 -7.300598e-02
     vertex  7.405084e-02  9.841270e-01 -5.318846e-02
   endloop
 endfacet
 facet normal  9.594930e-01  0.000000e+00 -2.817326e-01
   outer loop
     vertex  7.405084e-02 -1.587302e-02 -5.318846e-02
     vertex  6.823189e-02 -1.587302e-02 -7.300598e-02
     vertex  6.823189e-02  9.841270e-01 -7.300598e-02
   endloop
 endfacet
 facet normal  9.954719e-01  0.000000e+00 -9.505604e-02
   outer loop
     vertex  7.601414e-02 -1.587302e-02 -3.262783e-02
     vertex  7.405084e-02 -1.587302e-02 -5.318846e-02
     vertex  7.405084e-02  9.841270e-01 -5.318846e-02
   endloop
 endfacet
 facet normal  9.954719e-01  0.000000e+00 -9.505604e-02
   outer loop
     vertex  7.601414e-02 -1.587302e-02 -3.262783e-02
     vertex  7.405084e-02  9.841270e-01 -5.318846e-02
     vertex  7.601414e-02  9.841270e-01 -3.262783e-02
   endloop
 endfacet
 facet normal -0.000000e+00 -1.000000e+00  0.000000e+00
   outer loop
     vertex -1.024655e-01 -9.841270e-01 -1.024655e-01
     vertex -1.180262e-01 -9.841270e-01 -9.978585e-02
     vertex -1.037732e-01 -9.841270e-01 -1.147340e-01
   endloop
 endfacet
 facet normal -0.000000e+00 -1.000000e+00  0.000000e+00
   outer loop
     vertex -1.147483e-01 -9.841270e-01 -8.749897e-02
     vertex -1.291927e-01 -9.841270e-01 -8.241047e-02
     vertex -1.180262e-01 -9.841270e-01 -9.978585e-02
   endloop
 endfacet
 facet normal  0.000000e+00 -1.000000e+00 -0.000000e+00
   outer loop
     vertex -1.147483e-01 -9.841270e-01 -8.749897e-02
     vertex -1.180262e-01 -9.841270e-01 -9.978585e-02
     vertex -1.024655e-01 -9.841270e-01 -1.024655e-01
   endloop
 endfacet
 facet normal -0.000000e+00 -1.000000e+00 -0.000000e+00
   outer loop
     vertex -8.749897e-02 -9.841270e-01 -1.147483e-01
     vertex -1.037732e-01 -9.841270e-01 -1.147340e-01
     vertex -8.694882e-02 -9.841270e-01 -1.267145e-01
   endloop
 endfacet
 facet normal  0.000000e+00 -1.000000e+00  0.000000e+00
   outer loop
     vertex -8.749897e-02 -9.841270e-01 -1.147483e-01
     vertex -1.024655e-01 -9.841270e-01 -1.024655e-01
     vertex -1.037732e-01 -9.841270e-01 -1.147340e-01
   endloop
 endfacet
 facet normal -0.000000e+00 -1.000000e+00  0.000000e+00
   outer loop
     vertex -1.238752e-01 -9.841270e-01 -7.042373e-02
     vertex -1.368690e-01 -9.841270e-01 -6.323582e-02
     vertex -1.291927e-01 -9.841270e-01 -8.241047e-02
   endloop
 endfacet
 facet normal  0.000000e+00 -1.000000e+00 -0.000000e+00
   outer loop
     vertex -1.238752e-01 -9.841270e-01 -7.042373e-02
     vertex -1.291927e-01 -9.841270e-01 -8.241047e-02
     vertex -1.147483e-01 -9.841270e-01 -8.749897e-02
   endloop
 endfacet
 facet normal  0.000000e+00 -1.000000e+00 -0.000000e+00
   outer loop
     vertex -7.042373e-02 -9.841270e-01 -1.238752e-01
     vertex -8.694882e-02 -9.841270e-01 -1.267145e-01
     vertex -6.816114e-02 -9.841270e-01 -1.352946e-01
   endloop
 endfacet
 facet normal -0.000000e+00 -1.000000e+00  0.000000e+00
   outer loop
     vertex -7.042373e-02 -9.841270e-01 -1.238752e-01
     vertex -8.749897e-02 -9.841270e-01 -1.147483e-01
     vertex -8.694882e-02 -9.841270e-01 -1.267145e-01
   endloop
 endfacet
 facet normal -0.000000e+00 -1.000000e+00  0.000000e+00
   outer loop
     vertex -1.294955e-01 -9.841270e-01 -5.189601e-02
     vertex -1.407779e-01 -9.841270e-01 -4.295491e-02
     vertex -1.368690e-01 -9.841270e-01 -6.323582e-02
   endloop
 endfacet
 facet normal  0.000000e+00 -1.000000e+00 -0.000000e+00
   outer loop
     vertex -1.294955e-01 -9.841270e-01 -5.189601e-02
     vertex -1.368690e-01 -9.841270e-01 -6.323582e-02
     vertex -1.238752e-01 -9.841270e-01 -7.042373e-02
   endloop
 endfacet
 facet normal  0.000000e+00 -1.000000e+00 -0.000000e+00
   outer loop
     vertex -5.189601e-02 -9.841270e-01 -1.294955e-01
     vertex -6.816114e-02 -9.841270e-01 -1.352946e-01
     vertex -4.808920e-02 -9.841270e-01 -1.401640e-01
   endloop
 endfacet
 facet normal -0.000000e+00 -1.000000e+00  0.000000e+00
   outer loop
     vertex -5.189601e-02 -9.841270e-01 -1.294955e-01
     vertex -7.042373e-02 -9.841270e-01 -1.238752e-01
     vertex -6.816114e-02 -9.841270e-01 -1.352946e-01
   endloop
 endfacet
 facet normal  0.000000e+00 -1.000000e+00 -0.000000e+00
   outer loop
     vertex -1.313933e-01 -9.841270e-01 -3.262783e-02
     vertex -1.407779e-01 -9.841270e-01 -4.295491e-02
     vertex -1.294955e-01 -9.841270e-01 -5.189601e-02
   endloop
 endfacet
 facet normal  0.000000e+00 -1.000000e+00 -0.000000e+00
   outer loop
     vertex -3.262783e-02 -9.841270e-01 -1.313933e-01
     vertex -4.808920e-02 -9.841270e-01 -1.401640e-01
     vertex -2.745844e-02 -9.841270e-01 -1.411468e-01
   endloop
 endfacet
 facet normal -0.000000e+00 -1.000000e+00  0.000000e+00
   outer loop
     vertex -3.262783e-02 -9.841270e-01 -1.313933e-01
     vertex -5.189601e-02 -9.841270e-01 -1.294955e-01
     vertex -4.808920e-02 -9.841270e-01 -1.401640e-01
   endloop
 endfacet
 facet normal  0.000000e+00 -1.000000e+00  0.000000e+00
   outer loop
     vertex -1.407779e-01 -9.841270e-01 -2.230076e-02
     vertex -1.407779e-01 -9.841270e-01 -4.295491e-02
     vertex -1.313933e-01 -9.841270e-01 -3.262783e-02
   endloop
 endfacet
 facet normal  0.000000e+00 -1.000000e+00  0.000000e+00
   outer loop
     vertex -1.294955e-01 -9.841270e-01 -1.335965e-02
     vertex -1.407779e-01 -9.841270e-01 -2.230076e-02
     vertex -1.313933e-01 -9.841270e-01 -3.262783e-02
   endloop
 endfacet
 facet normal  0.000000e+00 -1.000000e+00 -0.000000e+00
   outer loop
     vertex -1.335965e-02 -9.841270e-01 -1.294955e-01
     vertex -2.745844e-02 -9.841270e-01 -1.411468e-01
     vertex -7.014517e-03 -9.841270e-01 -1.382074e-01
   endloop
 endfacet
 facet normal  0.000000e+00 -1.000000e+00  0.000000e+00
   outer loop
     vertex -1.335965e-02 -9.841270e-01 -1.294955e-01
     vertex -3.262783e-02 -9.841270e-01 -1.313933e-01
     vertex -2.745844e-02 -9.841270e-01 -1.411468e-01
   endloop
 endfacet
 facet normal  0.000000e+00 -1.000000e+00 -0.000000e+00
   outer loop
     vertex -1.368690e-01 -9.841270e-01 -2.019852e-03
     vertex -1.407779e-01 -9.841270e-01 -2.230076e-02
     vertex -1.294955e-01 -9.841270e-01 -1.335965e-02
   endloop
 endfacet
 facet normal  0.000000e+00 -1.000000e+00  0.000000e+00
   outer loop
     vertex -1.238752e-01 -9.841270e-01  5.168062e-03
     vertex -1.368690e-01 -9.841270e-01 -2.019852e-03
     vertex -1.294955e-01 -9.841270e-01 -1.335965e-02
   endloop
 endfacet
 facet normal  0.000000e+00 -1.000000e+00  0.000000e+00
   outer loop
     vertex  5.168062e-03 -9.841270e-01 -1.238752e-01
     vertex -1.335965e-02 -9.841270e-01 -1.294955e-01
     vertex -7.014517e-03 -9.841270e-01 -1.382074e-01
   endloop
 endfacet
 facet normal  0.000000e+00 -1.000000e+00 -0.000000e+00
   outer loop
     vertex  5.168062e-03 -9.841270e-01 -1.238752e-01
     vertex -7.014517e-03 -9.841270e-01 -1.382074e-01
     vertex  1.250367e-02 -9.841270e-01 -1.314521e-01
   endloop
 endfacet
 facet normal  0.000000e+00 -1.000000e+00 -0.000000e+00
   outer loop
     vertex -1.291927e-01 -9.841270e-01  1.715480e-02
     vertex -1.368690e-01 -9.841270e-01 -2.019852e-03
     vertex -1.238752e-01 -9.841270e-01  5.168062e-03
   endloop
 endfacet
 facet normal  0.000000e+00 -1.000000e+00  0.000000e+00
   outer loop
     vertex -1.147483e-01 -9.841270e-01  2.224330e-02
     vertex -1.291927e-01 -9.841270e-01  1.715480e-02
     vertex -1.238752e-01 -9.841270e-01  5.168062e-03
   endloop
 endfacet
 facet normal  0.000000e+00 -1.000000e+00  0.000000e+00
   outer loop
     vertex  2.224330e-02 -9.841270e-01 -1.147483e-01
     vertex  5.168062e-03 -9.841270e-01 -1.238752e-01
     vertex  1.250367e-02 -9.841270e-01 -1.314521e-01
   endloop
 endfacet
 facet normal -0.000000e+00 -1.000000e+00  0.000000e+00
   outer loop
     vertex  3.039070e-02 -9.841270e-01 -1.211250e-01
     vertex  2.224330e-02 -9.841270e-01 -1.147483e-01
     vertex  1.250367e-02 -9.841270e-01 -1.314521e-01
   endloop
 endfacet
 facet normal  0.000000e+00 -1.000000e+00 -0.000000e+00
   outer loop
     vertex -1.180262e-01 -9.841270e-01  3.453018e-02
     vertex -1.291927e-01 -9.841270e-01  1.715480e-02
     vertex -1.147483e-01 -9.841270e-01  2.224330e-02
   endloop
 endfacet
 facet normal  0.000000e+00 -1.000000e+00  0.000000e+00
   outer loop
     vertex -1.024655e-01 -9.841270e-01  3.720987e-02
     vertex -1.180262e-01 -9.841270e-01  3.453018e-02
     vertex -1.147483e-01 -9.841270e-01  2.224330e-02
   endloop
 endfacet
 facet normal  0.000000e+00 -1.000000e+00  0.000000e+00
   outer loop
     vertex  3.720987e-02 -9.841270e-01 -1.024655e-01
     vertex  2.224330e-02 -9.841270e-01 -1.147483e-01
     vertex  3.039070e-02 -9.841270e-01 -1.211250e-01
   endloop
 endfacet
 facet normal -0.000000e+00 -1.000000e+00  0.000000e+00
   outer loop
     vertex  4.600006e-02 -9.841270e-01 -1.075994e-01
     vertex  3.720987e-02 -9.841270e-01 -1.024655e-01
     vertex  3.039070e-02 -9.841270e-01 -1.211250e-01
   endloop
 endfacet
 facet normal  0.000000e+00 -1.000000e+00 -0.000000e+00
   outer loop
     vertex -1.037732e-01 -9.841270e-01  4.947829e-02
     vertex -1.180262e-01 -9.841270e-01  3.453018e-02
     vertex -1.024655e-01 -9.841270e-01  3.720987e-02
   endloop
 endfacet
 facet normal  0.000000e+00 -1.000000e+00  0.000000e+00
   outer loop
     vertex -8.749897e-02 -9.841270e-01  4.949262e-02
     vertex -1.037732e-01 -9.841270e-01  4.947829e-02
     vertex -1.024655e-01 -9.841270e-01  3.720987e-02
   endloop
 endfacet
 facet normal  0.000000e+00 -1.000000e+00  0.000000e+00
   outer loop
     vertex  4.949262e-02 -9.841270e-01 -8.749897e-02
     vertex  3.720987e-02 -9.841270e-01 -1.024655e-01
     vertex  4.600006e-02 -9.841270e-01 -1.075994e-01
   endloop
 endfacet
 facet normal -0.000000e+00 -1.000000e+00  0.000000e+00
   outer loop
     vertex  5.876761e-02 -9.841270e-01 -9.136412e-02
     vertex  4.949262e-02 -9.841270e-01 -8.749897e-02
     vertex  4.600006e-02 -9.841270e-01 -1.075994e-01
   endloop
 endfacet
 facet normal  0.000000e+00 -1.000000e+00  0.000000e+00
   outer loop
     vertex -8.694882e-02 -9.841270e-01  6.145888e-02
     vertex -1.037732e-01 -9.841270e-01  4.947829e-02
     vertex -8.749897e-02 -9.841270e-01  4.949262e-02
   endloop
 endfacet
 facet normal -0.000000e+00 -1.000000e+00  0.000000e+00
   outer loop
     vertex -7.042373e-02 -9.841270e-01  5.861953e-02
     vertex -8.694882e-02 -9.841270e-01  6.145888e-02
     vertex -8.749897e-02 -9.841270e-01  4.949262e-02
   endloop
 endfacet
 facet normal  0.000000e+00 -1.000000e+00 -0.000000e+00
   outer loop
     vertex  5.861953e-02 -9.841270e-01 -7.042373e-02
     vertex  4.949262e-02 -9.841270e-01 -8.749897e-02
     vertex  5.876761e-02 -9.841270e-01 -9.136412e-02
   endloop
 endfacet
 facet normal -0.000000e+00 -1.000000e+00  0.000000e+00
   outer loop
     vertex  6.823189e-02 -9.841270e-01 -7.300598e-02
     vertex  5.861953e-02 -9.841270e-01 -7.042373e-02
     vertex  5.876761e-02 -9.841270e-01 -9.136412e-02
   endloop
 endfacet
 facet normal  0.000000e+00 -1.000000e+00  0.000000e+00
   outer loop
     vertex -6.816114e-02 -9.841270e-01  7.003892e-02
     vertex -8.694882e-02 -9.841270e-01  6.145888e-02
     vertex -7.042373e-02 -9.841270e-01  5.861953e-02
   endloop
 endfacet
 facet normal -0.000000e+00 -1.000000e+00  0.000000e+00
   outer loop
     vertex -5.189601e-02 -9.841270e-01  6.423985e-02
     vertex -6.816114e-02 -9.841270e-01  7.003892e-02
     vertex -7.042373e-02 -9.841270e-01  5.861953e-02
   endloop
 endfacet
 facet normal  0.000000e+00 -1.000000e+00 -0.000000e+00
   outer loop
     vertex  6.423985e-02 -9.841270e-01 -5.189601e-02
     vertex  5.861953e-02 -9.841270e-01 -7.042373e-02
     vertex  6.823189e-02 -9.841270e-01 -7.300598e-02
   endloop
 endfacet
 facet normal -0.000000e+00 -1.000000e+00  0.000000e+00
   outer loop
     vertex  7.405084e-02 -9.841270e-01 -5.318846e-02
     vertex  6.423985e-02 -9.841270e-01 -5.189601e-02
     vertex  6.823189e-02 -9.841270e-01 -7.300598e-02
   endloop
 endfacet
 facet normal  0.000000e+00 -1.000000e+00  0.000000e+00
   outer loop
     vertex -4.808920e-02 -9.841270e-01  7.490833e-02
     vertex -6.816114e-02 -9.841270e-01  7.003892e-02
     vertex -5.189601e-02 -9.841270e-01  6.423985e-02
   endloop
 endfacet
 facet normal  0.000000e+00 -1.000000e+00 -0.000000e+00
   outer loop
     vertex  6.613760e-02 -9.841270e-01 -3.262783e-02
     vertex  6.423985e-02 -9.841270e-01 -5.189601e-02
     vertex  7.405084e-02 -9.841270e-01 -5.318846e-02
   endloop
 endfacet
 facet normal -0.000000e+00 -1.000000e+00  0.000000e+00
   outer loop
     vertex -3.262783e-02 -9.841270e-01  6.613760e-02
     vertex -4.808920e-02 -9.841270e-01  7.490833e-02
     vertex -5.189601e-02 -9.841270e-01  6.423985e-02
   endloop
 endfacet
 facet normal -0.000000e+00 -1.000000e+00  0.000000e+00
   outer loop
     vertex  7.601414e-02 -9.841270e-01 -3.262783e-02
     vertex  6.613760e-02 -9.841270e-01 -3.262783e-02
     vertex  7.405084e-02 -9.841270e-01 -5.318846e-02
   endloop
 endfacet
 facet normal  0.000000e+00 -1.000000e+00  0.000000e+00
   outer loop
     vertex -2.745844e-02 -9.841270e-01  7.589109e-02
     vertex -4.808920e-02 -9.841270e-01  7.490833e-02
     vertex -3.262783e-02 -9.841270e-01  6.613760e-02
   endloop
 endfacet
 facet normal  0.000000e+00 -1.000000e+00  0.000000e+00
   outer loop
     vertex -1.335965e-02 -9.841270e-01  6.423985e-02
     vertex -2.745844e-02 -9.841270e-01  7.589109e-02
     vertex -3.262783e-02 -9.841270e-01  6.613760e-02
   endloop
 endfacet
 facet normal  0.000000e+00 -1.000000e+00  0.000000e+00
   outer loop
     vertex  7.405084e-02 -9.841270e-01 -1.206720e-02
     vertex  6.423985e-02 -9.841270e-01 -1.335965e-02
     vertex  6.613760e-02 -9.841270e-01 -3.262783e-02
   endloop
 endfacet
 facet normal  0.000000e+00 -1.000000e+00 -0.000000e+00
   outer loop
     vertex  7.405084e-02 -9.841270e-01 -1.206720e-02
     vertex  6.613760e-02 -9.841270e-01 -3.262783e-02
     vertex  7.601414e-02 -9.841270e-01 -3.262783e-02
   endloop
 endfacet
 facet normal  0.000000e+00 -1.000000e+00 -0.000000e+00
   outer loop
     vertex -7.014517e-03 -9.841270e-01  7.295170e-02
     vertex -1.335965e-02 -9.841270e-01  6.423985e-02
     vertex  5.168062e-03 -9.841270e-01  5.861953e-02
   endloop
 endfacet
 facet normal -0.000000e+00 -1.000000e+00  0.000000e+00
   outer loop
     vertex -7.014517e-03 -9.841270e-01  7.295170e-02
     vertex -2.745844e-02 -9.841270e-01  7.589109e-02
     vertex -1.335965e-02 -9.841270e-01  6.423985e-02
   endloop
 endfacet
 facet normal  0.000000e+00 -1.000000e+00  0.000000e+00
   outer loop
     vertex  6.823189e-02 -9.841270e-01  7.750310e-03
     vertex  5.861953e-02 -9.841270e-01  5.168062e-03
     vertex  6.423985e-02 -9.841270e-01 -1.335965e-02
   endloop
 endfacet
 facet normal  0.000000e+00 -1.000000e+00 -0.000000e+00
   outer loop
     vertex  6.823189e-02 -9.841270e-01  7.750310e-03
     vertex  6.423985e-02 -9.841270e-01 -1.335965e-02
     vertex  7.405084e-02 -9.841270e-01 -1.206720e-02
   endloop
 endfacet
 facet normal  0.000000e+00 -1.000000e+00 -0.000000e+00
   outer loop
     vertex  1.250367e-02 -9.841270e-01  6.619639e-02
     vertex  5.168062e-03 -9.841270e-01  5.861953e-02
     vertex  2.224330e-02 -9.841270e-01  4.949262e-02
   endloop
 endfacet
 facet normal -0.000000e+00 -1.000000e+00  0.000000e+00
   outer loop
     vertex  1.250367e-02 -9.841270e-01  6.619639e-02
     vertex -7.014517e-03 -9.841270e-01  7.295170e-02
     vertex  5.168062e-03 -9.841270e-01  5.861953e-02
   endloop
 endfacet
 facet normal  0.000000e+00 -1.000000e+00  0.000000e+00
   outer loop
     vertex  5.876761e-02 -9.841270e-01  2.610845e-02
     vertex  4.949262e-02 -9.841270e-01  2.224330e-02
     vertex  5.861953e-02 -9.841270e-01  5.168062e-03
   endloop
 endfacet
 facet normal  0.000000e+00 -1.000000e+00 -0.000000e+00
   outer loop
     vertex  5.876761e-02 -9.841270e-01  2.610845e-02
     vertex  5.861953e-02 -9.841270e-01  5.168062e-03
     vertex  6.823189e-02 -9.841270e-01  7.750310e-03
   endloop
 endfacet
 facet normal  0.000000e+00 -1.000000e+00 -0.000000e+00
   outer loop
     vertex  3.039070e-02 -9.841270e-01  5.586931e-02
     vertex  2.224330e-02 -9.841270e-01  4.949262e-02
     vertex  3.720987e-02 -9.841270e-01  3.720987e-02
   endloop
 endfacet
 facet normal -0.000000e+00 -1.000000e+00  0.000000e+00
   outer loop
     vertex  3.039070e-02 -9.841270e-01  5.586931e-02
     vertex  1.250367e-02 -9.841270e-01  6.619639e-02
     vertex  2.224330e-02 -9.841270e-01  4.949262e-02
   endloop
 endfacet
 facet normal  0.000000e+00 -1.000000e+00 -0.000000e+00
   outer loop
     vertex  4.600006e-02 -9.841270e-01  4.234371e-02
     vertex  3.720987e-02 -9.841270e-01  3.720987e-02
     vertex  4.949262e-02 -9.841270e-01  2.224330e-02
   endloop
 endfacet
 facet normal -0.000000e+00 -1.000000e+00  0.000000e+00
   outer loop
     vertex  4.600006e-02 -9.841270e-01  4.234371e-02
     vertex  3.039070e-02 -9.841270e-01  5.586931e-02
     vertex  3.720987e-02 -9.841270e-01  3.720987e-02
   endloop
 endfacet
 facet normal  0.000000e+00 -1.000000e+00  0.000000e+00
   outer loop
     vertex  4.600006e-02 -9.841270e-01  4.234371e-02
     vertex  4.949262e-02 -9.841270e-01  2.224330e-02
     vertex  5.876761e-02 -9.841270e-01  2.610845e-02
   endloop
 endfacet
 facet normal  0.000000e+00  1.000000e+00  0.000000e+00
   outer loop
     vertex -1.024655e-01  9.841270e-01 -1.024655e-01
     vertex -1.037732e-01  9.841270e-01 -1.147340e-01
     vertex -1.180262e-01  9.841270e-01 -9.978585e-02
   endloop
 endfacet
 facet normal  0.000000e+00  1.000000e+00  0.000000e+00
   outer loop
     vertex -1.147483e-01  9.841270e-01 -8.749897e-02
     vertex -1.180262e-01  9.841270e-01 -9.978585e-02
     vertex -1.291927e-01  9.841270e-01 -8.241047e-02
   endloop
 endfacet
 facet normal  0.000000e+00  1.000000e+00  0.000000e+00
   outer loop
     vertex -1.147483e-01  9.841270e-01 -8.749897e-02
     vertex -1.024655e-01  9.841270e-01 -1.024655e-01
     vertex -1.180262e-01  9.841270e-01 -9.978585e-02
   endloop
 endfacet
 facet normal  0.000000e+00  1.000000e+00  0.000000e+00
   outer loop
     vertex -8.749897e-02  9.841270e-01 -1.147483e-01
     vertex -8.694882e-02  9.841270e-01 -1.267145e-01
     vertex -1.037732e-01  9.841270e-01 -1.147340e-01
   endloop
 endfacet
 facet normal  0.000000e+00  1.000000e+00  0.000000e+00
   outer loop
     vertex -8.749897e-02  9.841270e-01 -1.147483e-01
     vertex -1.037732e-01  9.841270e-01 -1.147340e-01
     vertex -1.024655e-01  9.841270e-01 -1.024655e-01
   endloop
 endfacet
 facet normal  0.000000e+00  1.000000e+00  0.000000e+00
   outer loop
     vertex -1.238752e-01  9.841270e-01 -7.042373e-02
     vertex -1.291927e-01  9.841270e-01 -8.241047e-02
     vertex -1.368690e-01  9.841270e-01 -6.323582e-02
   endloop
 endfacet
 facet normal  0.000000e+00  1.000000e+00  0.000000e+00
   outer loop
     vertex -1.238752e-01  9.841270e-01 -7.042373e-02
     vertex -1.147483e-01  9.841270e-01 -8.749897e-02
     vertex -1.291927e-01  9.841270e-01 -8.241047e-02
   endloop
 endfacet
 facet normal  0.000000e+00  1.000000e+00  0.000000e+00
   outer loop
     vertex -7.042373e-02  9.841270e-01 -1.238752e-01
     vertex -6.816114e-02  9.841270e-01 -1.352946e-01
     vertex -8.694882e-02  9.841270e-01 -1.267145e-01
   endloop
 endfacet
 facet normal  0.000000e+00  1.000000e+00  0.000000e+00
   outer loop
     vertex -7.042373e-02  9.841270e-01 -1.238752e-01
     vertex -8.694882e-02  9.841270e-01 -1.267145e-01
     vertex -8.749897e-02  9.841270e-01 -1.147483e-01
   endloop
 endfacet
 facet normal  0.000000e+00  1.000000e+00  0.000000e+00
   outer loop
     vertex -1.294955e-01  9.841270e-01 -5.189601e-02
     vertex -1.368690e-01  9.841270e-01 -6.323582e-02
     vertex -1.407779e-01  9.841270e-01 -4.295491e-02
   endloop
 endfacet
 facet normal  0.000000e+00  1.000000e+00  0.000000e+00
   outer loop
     vertex -1.294955e-01  9.841270e-01 -5.189601e-02
     vertex -1.238752e-01  9.841270e-01 -7.042373e-02
     vertex -1.368690e-01  9.841270e-01 -6.323582e-02
   endloop
 endfacet
 facet normal  0.000000e+00  1.000000e+00  0.000000e+00
   outer loop
     vertex -5.189601e-02  9.841270e-01 -1.294955e-01
     vertex -4.808920e-02  9.841270e-01 -1.401640e-01
     vertex -6.816114e-02  9.841270e-01 -1.352946e-01
   endloop
 endfacet
 facet normal  0.000000e+00  1.000000e+00  0.000000e+00
   outer loop
     vertex -5.189601e-02  9.841270e-01 -1.294955e-01
     vertex -6.816114e-02  9.841270e-01 -1.352946e-01
     vertex -7.042373e-02  9.841270e-01 -1.238752e-01
   endloop
 endfacet
 facet normal  0.000000e+00  1.000000e+00  0.000000e+00
   outer loop
     vertex -1.313933e-01  9.841270e-01 -3.262783e-02
     vertex -1.294955e-01  9.841270e-01 -5.189601e-02
     vertex -1.407779e-01  9.841270e-01 -4.295491e-02
   endloop
 endfacet
 facet normal  0.000000e+00  1.000000e+00  0.000000e+00
   outer loop
     vertex -3.262783e-02  9.841270e-01 -1.313933e-01
     vertex -2.745844e-02  9.841270e-01 -1.411468e-01
     vertex -4.808920e-02  9.841270e-01 -1.401640e-01
   endloop
 endfacet
 facet normal  0.000000e+00  1.000000e+00  0.000000e+00
   outer loop
     vertex -3.262783e-02  9.841270e-01 -1.313933e-01
     vertex -4.808920e-02  9.841270e-01 -1.401640e-01
     vertex -5.189601e-02  9.841270e-01 -1.294955e-01
   endloop
 endfacet
 facet normal  0.000000e+00  1.000000e+00  0.000000e+00
   outer loop
     vertex -1.407779e-01  9.841270e-01 -2.230076e-02
     vertex -1.313933e-01  9.841270e-01 -3.262783e-02
     vertex -1.407779e-01  9.841270e-01 -4.295491e-02
   endloop
 endfacet
 facet normal  0.000000e+00  1.000000e+00  0.000000e+00
   outer loop
     vertex -1.294955e-01  9.841270e-01 -1.335965e-02
     vertex -1.313933e-01  9.841270e-01 -3.262783e-02
     vertex -1.407779e-01  9.841270e-01 -2.230076e-02
   endloop
 endfacet
 facet normal  0.000000e+00  1.000000e+00  0.000000e+00
   outer loop
     vertex -1.335965e-02  9.841270e-01 -1.294955e-01
     vertex -7.014517e-03  9.841270e-01 -1.382074e-01
     vertex -2.745844e-02  9.841270e-01 -1.411468e-01
   endloop
 endfacet
 facet normal  0.000000e+00  1.000000e+00  0.000000e+00
   outer loop
     vertex -1.335965e-02  9.841270e-01 -1.294955e-01
     vertex -2.745844e-02  9.841270e-01 -1.411468e-01
     vertex -3.262783e-02  9.841270e-01 -1.313933e-01
   endloop
 endfacet
 facet normal  0.000000e+00  1.000000e+00  0.000000e+00
   outer loop
     vertex -1.368690e-01  9.841270e-01 -2.019852e-03
     vertex -1.294955e-01  9.841270e-01 -1.335965e-02
     vertex -1.407779e-01  9.841270e-01 -2.230076e-02
   endloop
 endfacet
 facet normal  0.000000e+00  1.000000e+00  0.000000e+00
   outer loop
     vertex -1.238752e-01  9.841270e-01  5.168062e-03
     vertex -1.294955e-01  9.841270e-01 -1.335965e-02
     vertex -1.368690e-01  9.841270e-01 -2.019852e-03
   endloop
 endfacet
 facet normal  0.000000e+00  1.000000e+00  0.000000e+00
   outer loop
     vertex  5.168062e-03  9.841270e-01 -1.238752e-01
     vertex -7.014517e-03  9.841270e-01 -1.382074e-01
     vertex -1.335965e-02  9.841270e-01 -1.294955e-01
   endloop
 endfacet
 facet normal  0.000000e+00  1.000000e+00  0.000000e+00
   outer loop
     vertex  5.168062e-03  9.841270e-01 -1.238752e-01
     vertex  1.250367e-02  9.841270e-01 -1.314521e-01
     vertex -7.014517e-03  9.841270e-01 -1.382074e-01
   endloop
 endfacet
 facet normal  0.000000e+00  1.000000e+00  0.000000e+00
   outer loop
     vertex -1.291927e-01  9.841270e-01  1.715480e-02
     vertex -1.238752e-01  9.841270e-01  5.168062e-03
     vertex -1.368690e-01  9.841270e-01 -2.019852e-03
   endloop
 endfacet
 facet normal  0.000000e+00  1.000000e+00  0.000000e+00
   outer loop
     vertex -1.147483e-01  9.841270e-01  2.224330e-02
     vertex -1.238752e-01  9.841270e-01  5.168062e-03
     vertex -1.291927e-01  9.841270e-01  1.715480e-02
   endloop
 endfacet
 facet normal  0.000000e+00  1.000000e+00  0.000000e+00
   outer loop
     vertex  2.224330e-02  9.841270e-01 -1.147483e-01
     vertex  1.250367e-02  9.841270e-01 -1.314521e-01
     vertex  5.168062e-03  9.841270e-01 -1.238752e-01
   endloop
 endfacet
 facet normal  0.000000e+00  1.000000e+00  0.000000e+00
   outer loop
     vertex  3.039070e-02  9.841270e-01 -1.211250e-01
     vertex  1.250367e-02  9.841270e-01 -1.314521e-01
     vertex  2.224330e-02  9.841270e-01 -1.147483e-01
   endloop
 endfacet
 facet normal  0.000000e+00  1.000000e+00  0.000000e+00
   outer loop
     vertex -1.180262e-01  9.841270e-01  3.453018e-02
     vertex -1.147483e-01  9.841270e-01  2.224330e-02
     vertex -1.291927e-01  9.841270e-01  1.715480e-02
   endloop
 endfacet
 facet normal  0.000000e+00  1.000000e+00  0.000000e+00
   outer loop
     vertex -1.024655e-01  9.841270e-01  3.720987e-02
     vertex -1.147483e-01  9.841270e-01  2.224330e-02
     vertex -1.180262e-01  9.841270e-01  3.453018e-02
   endloop
 endfacet
 facet normal  0.000000e+00  1.000000e+00  0.000000e+00
   outer loop
     vertex  3.720987e-02  9.841270e-01 -1.024655e-01
     vertex  3.039070e-02  9.841270e-01 -1.211250e-01
     vertex  2.224330e-02  9.841270e-01 -1.147483e-01
   endloop
 endfacet
 facet normal  0.000000e+00  1.000000e+00  0.000000e+00
   outer loop
     vertex  4.600006e-02  9.841270e-01 -1.075994e-01
     vertex  3.039070e-02  9.841270e-01 -1.211250e-01
     vertex  3.720987e-02  9.841270e-01 -1.024655e-01
   endloop
 endfacet
 facet normal  0.000000e+00  1.000000e+00  0.000000e+00
   outer loop
     vertex -1.037732e-01  9.841270e-01  4.947829e-02
     vertex -1.024655e-01  9.841270e-01  3.720987e-02
     vertex -1.180262e-01  9.841270e-01  3.453018e-02
   endloop
 endfacet
 facet normal  0.000000e+00  1.000000e+00  0.000000e+00
   outer loop
     vertex -8.749897e-02  9.841270e-01  4.949262e-02
     vertex -1.024655e-01  9.841270e-01  3.720987e-02
     vertex -1.037732e-01  9.841270e-01  4.947829e-02
   endloop
 endfacet
 facet normal  0.000000e+00  1.000000e+00  0.000000e+00
   outer loop
     vertex  4.949262e-02  9.841270e-01 -8.749897e-02
     vertex  4.600006e-02  9.841270e-01 -1.075994e-01
     vertex  3.720987e-02  9.841270e-01 -1.024655e-01
   endloop
 endfacet
 facet normal  0.000000e+00  1.000000e+00  0.000000e+00
   outer loop
     vertex  5.876761e-02  9.841270e-01 -9.136412e-02
     vertex  4.600006e-02  9.841270e-01 -1.075994e-01
     vertex  4.949262e-02  9.841270e-01 -8.749897e-02
   endloop
 endfacet
 facet normal  0.000000e+00  1.000000e+00  0.000000e+00
   outer loop
     vertex -8.694882e-02  9.841270e-01  6.145888e-02
     vertex -8.749897e-02  9.841270e-01  4.949262e-02
     vertex -1.037732e-01  9.841270e-01  4.947829e-02
   endloop
 endfacet
 facet normal  0.000000e+00  1.000000e+00  0.000000e+00
   outer loop
     vertex -7.042373e-02  9.841270e-01  5.861953e-02
     vertex -8.749897e-02  9.841270e-01  4.949262e-02
     vertex -8.694882e-02  9.841270e-01  6.145888e-02
   endloop
 endfacet
 facet normal  0.000000e+00  1.000000e+00  0.000000e+00
   outer loop
     vertex  5.861953e-02  9.841270e-01 -7.042373e-02
     vertex  5.876761e-02  9.841270e-01 -9.136412e-02
     vertex  4.949262e-02  9.841270e-01 -8.749897e-02
   endloop
 endfacet
 facet normal  0.000000e+00  1.000000e+00  0.000000e+00
   outer loop
     vertex  6.823189e-02  9.841270e-01 -7.300598e-02
     vertex  5.876761e-02  9.841270e-01 -9.136412e-02
     vertex  5.861953e-02  9.841270e-01 -7.042373e-02
   endloop
 endfacet
 facet normal  0.000000e+00  1.000000e+00  0.000000e+00
   outer loop
     vertex -6.816114e-02  9.841270e-01  7.003892e-02
     vertex -7.042373e-02  9.841270e-01  5.861953e-02
     vertex -8.694882e-02  9.841270e-01  6.145888e-02
   endloop
 endfacet
 facet normal  0.000000e+00  1.000000e+00  0.000000e+00
   outer loop
     vertex -5.189601e-02  9.841270e-01  6.423985e-02
     vertex -7.042373e-02  9.841270e-01  5.861953e-02
     vertex -6.816114e-02  9.841270e-01  7.003892e-02
   endloop
 endfacet
 facet normal  0.000000e+00  1.000000e+00  0.000000e+00
   outer loop
     vertex  6.423985e-02  9.841270e-01 -5.189601e-02
     vertex  6.823189e-02  9.841270e-01 -7.300598e-02
     vertex  5.861953e-02  9.841270e-01 -7.042373e-02
   endloop
 endfacet
 facet normal  0.000000e+00  1.000000e+00  0.000000e+00
   outer loop
     vertex  7.405084e-02  9.841270e-01 -5.318846e-02
     vertex  6.823189e-02  9.841270e-01 -7.300598e-02
     vertex  6.423985e-02  9.841270e-01 -5.189601e-02
   endloop
 endfacet
 facet normal  0.000000e+00  1.000000e+00  0.000000e+00
   outer loop
     vertex -4.808920e-02  9.841270e-01  7.490833e-02
     vertex -5.189601e-02  9.841270e-01  6.423985e-02
     vertex -6.816114e-02  9.841270e-01  7.003892e-02
   endloop
 endfacet
 facet normal  0.000000e+00  1.000000e+00  0.000000e+00
   outer loop
     vertex  6.613760e-02  9.841270e-01 -3.262783e-02
     vertex  7.405084e-02  9.841270e-01 -5.318846e-02
     vertex  6.423985e-02  9.841270e-01 -5.189601e-02
   endloop
 endfacet
 facet normal  0.000000e+00  1.000000e+00  0.000000e+00
   outer loop
     vertex -3.262783e-02  9.841270e-01  6.613760e-02
     vertex -5.189601e-02  9.841270e-01  6.423985e-02
     vertex -4.808920e-02  9.841270e-01  7.490833e-02
   endloop
 endfacet
 facet normal  0.000000e+00  1.000000e+00  0.000000e+00
   outer loop
     vertex  7.601414e-02  9.841270e-01 -3.262783e-02
     vertex  7.405084e-02  9.841270e-01 -5.318846e-02
     vertex  6.613760e-02  9.841270e-01 -3.262783e-02
   endloop
 endfacet
 facet normal  0.000000e+00  1.000000e+00  0.000000e+00
   outer loop
     vertex -2.745844e-02  9.841270e-01  7.589109e-02
     vertex -3.262783e-02  9.841270e-01  6.613760e-02
     vertex -4.808920e-02  9.841270e-01  7.490833e-02
   endloop
 endfacet
 facet normal  0.000000e+00  1.000000e+00  0.000000e+00
   outer loop
     vertex -1.335965e-02  9.841270e-01  6.423985e-02
     vertex -3.262783e-02  9.841270e-01  6.613760e-02
     vertex -2.745844e-02  9.841270e-01  7.589109e-02
   endloop
 endfacet
 facet normal  0.000000e+00  1.000000e+00  0.000000e+00
   outer loop
     vertex  7.405084e-02  9.841270e-01 -1.206720e-02
     vertex  6.613760e-02  9.841270e-01 -3.262783e-02
     vertex  6.423985e-02  9.841270e-01 -1.335965e-02
   endloop
 endfacet
 facet normal  0.000000e+00  1.000000e+00  0.000000e+00
   outer loop
     vertex  7.405084e-02  9.841270e-01 -1.206720e-02
     vertex  7.601414e-02  9.841270e-01 -3.262783e-02
     vertex  6.613760e-02  9.841270e-01 -3.262783e-02
   endloop
 endfacet
 facet normal  0.000000e+00  1.000000e+00  0.000000e+00
   outer loop
     vertex -7.014517e-03  9.841270e-01  7.295170e-02
     vertex  5.168062e-03  9.841270e-01  5.861953e-02
     vertex -1.335965e-02  9.841270e-01  6.423985e-02
   endloop
 endfacet
 facet normal  0.000000e+00  1.000000e+00  0.000000e+00
   outer loop
     vertex -7.014517e-03  9.841270e-01  7.295170e-02
     vertex -1.335965e-02  9.841270e-01  6.423985e-02
     vertex -2.745844e-02  9.841270e-01  7.589109e-02
   endloop
 endfacet
 facet normal  0.000000e+00  1.000000e+00  0.000000e+00
   outer loop
     vertex  6.823189e-02  9.841270e-01  7.750310e-03
     vertex  6.423985e-02  9.841270e-01 -1.335965e-02
     vertex  5.861953e-02  9.841270e-01  5.168062e-03
   endloop
 endfacet
 facet normal  0.000000e+00  1.000000e+00  0.000000e+00
   outer loop
     vertex  6.823189e-02  9.841270e-01  7.750310e-03
     vertex  7.405084e-02  9.841270e-01 -1.206720e-02
     vertex  6.423985e-02  9.841270e-01 -1.335965e-02
   endloop
 endfacet
 facet normal  0.000000e+00  1.000000e+00  0.000000e+00
   outer loop
     vertex  1.250367e-02  9.841270e-01  6.619639e-02
     vertex  2.224330e-02  9.841270e-01  4.949262e-02
     vertex  5.168062e-03  9.841270e-01  5.861953e-02
   endloop
 endfacet
 facet normal  0.000000e+00  1.000000e+00  0.000000e+00
   outer loop
     vertex  1.250367e-02  9.841270e-01  6.619639e-02
     vertex  5.168062e-03  9.841270e-01  5.861953e-02
     vertex -7.014517e-03  9.841270e-01  7.295170e-02
   endloop
 endfacet
 facet normal  0.000000e+00  1.000000e+00  0.000000e+00
   outer loop
     vertex  5.876761e-02  9.841270e-01  2.610845e-02
     vertex  5.861953e-02  9.841270e-01  5.168062e-03
     vertex  4.949262e-02  9.841270e-01  2.224330e-02
   endloop
 endfacet
 facet normal  0.000000e+00  1.000000e+00  0.000000e+00
   outer loop
     vertex  5.876761e-02  9.841270e-01  2.610845e-02
     vertex  6.823189e-02  9.841270e-01  7.750310e-03
     vertex  5.861953e-02  9.841270e-01  5.168062e-03
   endloop
 endfacet
 facet normal  0.000000e+00  1.000000e+00  0.000000e+00
   outer loop
     vertex  3.039070e-02  9.841270e-01  5.586931e-02
     vertex  3.720987e-02  9.841270e-01  3.720987e-02
     vertex  2.224330e-02  9.841270e-01  4.949262e-02
   endloop
 endfacet
 facet normal  0.000000e+00  1.000000e+00  0.000000e+00
   outer loop
     vertex  3.039070e-02  9.841270e-01  5.586931e-02
     vertex  2.224330e-02  9.841270e-01  4.949262e-02
     vertex  1.250367e-02  9.841270e-01  6.619639e-02
   endloop
 endfacet
 facet normal  0.000000e+00  1.000000e+00  0.000000e+00
   outer loop
     vertex  4.600006e-02  9.841270e-01  4.234371e-02
     vertex  4.949262e-02  9.841270e-01  2.224330e-02
     vertex  3.720987e-02  9.841270e-01  3.720987e-02
   endloop
 endfacet
 facet normal  0.000000e+00  1.000000e+00  0.000000e+00
   outer loop
     vertex  4.600006e-02  9.841270e-01  4.234371e-02
     vertex  3.720987e-02  9.841270e-01  3.720987e-02
     vertex  3.039070e-02  9.841270e-01  5.586931e-02
   endloop
 endfacet
 facet normal  0.000000e+00  1.000000e+00  0.000000e+00
   outer loop
     vertex  4.600006e-02  9.841270e-01  4.234371e-02
     vertex  5.876761e-02  9.841270e-01  2.610845e-02
     vertex  4.949262e-02  9.841270e-01  2.224330e-02
   endloop
 endfacet
 facet normal  0.000000e+00 -1.000000e+00  0.000000e+00
   outer loop
     vertex  3.720987e-02 -9.841270e-01  3.720987e-02
     vertex  6.613760e-02 -9.841270e-01 -3.262783e-02
     vertex  6.423985e-02 -9.841270e-01 -1.335965e-02
   endloop
 endfacet
 facet normal  0.000000e+00 -1.000000e+00  0.000000e+00
   outer loop
     vertex  3.720987e-02 -9.841270e-01  3.720987e-02
     vertex  6.423985e-02 -9.841270e-01 -1.335965e-02
     vertex  5.861953e-02 -9.841270e-01  5.168062e-03
   endloop
 endfacet
 facet normal  0.000000e+00 -1.000000e+00  0.000000e+00
   outer loop
     vertex  3.720987e-02 -9.841270e-01  3.720987e-02
     vertex  5.861953e-02 -9.841270e-01  5.168062e-03
     vertex  4.949262e-02 -9.841270e-01  2.224330e-02
   endloop
 endfacet
 facet normal  0.000000e+00 -1.000000e+00  0.000000e+00
   outer loop
     vertex  3.720987e-02 -9.841270e-01  3.720987e-02
     vertex  2.224330e-02 -9.841270e-01  4.949262e-02
     vertex  5.168062e-03 -9.841270e-01  5.861953e-02
   endloop
 endfacet
 facet normal  0.000000e+00 -1.000000e+00  0.000000e+00
   outer loop
     vertex  3.720987e-02 -9.841270e-01  3.720987e-02
     vertex  5.168062e-03 -9.841270e-01  5.861953e-02
     vertex -1.335965e-02 -9.841270e-01  6.423985e-02
   endloop
 endfacet
 facet normal  0.000000e+00 -1.000000e+00  0.000000e+00
   outer loop
     vertex  3.720987e-02 -9.841270e-01  3.720987e-02
     vertex -1.335965e-02 -9.841270e-01  6.423985e-02
     vertex -3.262783e-02 -9.841270e-01  6.613760e-02
   endloop
 endfacet
 facet normal  0.000000e+00 -1.000000e+00  0.000000e+00
   outer loop
     vertex  3.720987e-02 -9.841270e-01  3.720987e-02
     vertex -3.262783e-02 -9.841270e-01  6.613760e-02
     vertex -5.189601e-02 -9.841270e-01  6.423985e-02
   endloop
 endfacet
 facet normal  0.000000e+00 -1.000000e+00  0.000000e+00
   outer loop
     vertex  3.720987e-02 -9.841270e-01  3.720987e-02
     vertex -5.189601e-02 -9.841270e-01  6.423985e-02
     vertex -7.042373e-02 -9.841270e-01  5.861953e-02
   endloop
 endfacet
 facet normal  0.000000e+00 -1.000000e+00  0.000000e+00
   outer loop
     vertex  3.720987e-02 -9.841270e-01  3.720987e-02
     vertex -7.042373e-02 -9.841270e-01  5.861953e-02
     vertex -8.749897e-02 -9.841270e-01  4.949262e-02
   endloop
 endfacet
 facet normal  0.000000e+00 -1.000000e+00  0.000000e+00
   outer loop
     vertex  3.720987e-02 -9.841270e-01  3.720987e-02
     vertex -8.749897e-02 -9.841270e-01  4.949262e-02
     vertex -1.024655e-01 -9.841270e-01  3.720987e-02
   endloop
 endfacet
 facet normal -0.000000e+00 -1.000000e+00  0.000000e+00
   outer loop
     vertex  3.720987e-02 -9.841270e-01  3.720987e-02
     vertex -1.024655e-01 -9.841270e-01  3.720987e-02
     vertex -1.147483e-01 -9.841270e-01  2.224330e-02
   endloop
 endfacet
 facet normal  0.000000e+00 -1.000000e+00  0.000000e+00
   outer loop
     vertex  3.720987e-02 -9.841270e-01  3.720987e-02
     vertex -1.147483e-01 -9.841270e-01  2.224330e-02
     vertex -1.238752e-01 -9.841270e-01  5.168062e-03
   endloop
 endfacet
 facet normal  0.000000e+00 -1.000000e+00  0.000000e+00
   outer loop
     vertex  3.720987e-02 -9.841270e-01  3.720987e-02
     vertex -1.238752e-01 -9.841270e-01  5.168062e-03
     vertex -1.294955e-01 -9.841270e-01 -1.335965e-02
   endloop
 endfacet
 facet normal  0.000000e+00 -1.000000e+00  0.000000e+00
   outer loop
     vertex  3.720987e-02 -9.841270e-01  3.720987e-02
     vertex -1.294955e-01 -9.841270e-01 -1.335965e-02
     vertex -1.313933e-01 -9.841270e-01 -3.262783e-02
   endloop
 endfacet
 facet normal  0.000000e+00 -1.000000e+00  0.000000e+00
   outer loop
     vertex  3.720987e-02 -9.841270e-01  3.720987e-02
     vertex -1.313933e-01 -9.841270e-01 -3.262783e-02
     vertex -1.294955e-01 -9.841270e-01 -5.189601e-02
   endloop
 endfacet
 facet normal  0.000000e+00 -1.000000e+00  0.000000e+00
   outer loop
     vertex  3.720987e-02 -9.841270e-01  3.720987e-02
     vertex -1.294955e-01 -9.841270e-01 -5.189601e-02
     vertex -1.238752e-01 -9.841270e-01 -7.042373e-02
   endloop
 endfacet
 facet normal  0.000000e+00 -1.000000e+00  0.000000e+00
   outer loop
     vertex  3.720987e-02 -9.841270e-01  3.720987e-02
     vertex -1.238752e-01 -9.841270e-01 -7.042373e-02
     vertex -1.147483e-01 -9.841270e-01 -8.749897e-02
   endloop
 endfacet
 facet normal  0.000000e+00 -1.000000e+00  0.000000e+00
   outer loop
     vertex  3.720987e-02 -9.841270e-01  3.720987e-02
     vertex -1.147483e-01 -9.841270e-01 -8.749897e-02
     vertex -1.024655e-01 -9.841270e-01 -1.024655e-01
   endloop
 endfacet
 facet normal  0.000000e+00 -1.000000e+00  0.000000e+00
   outer loop
     vertex  3.720987e-02 -9.841270e-01  3.720987e-02
     vertex -1.024655e-01 -9.841270e-01 -1.024655e-01
     vertex -8.749897e-02 -9.841270e-01 -1.147483e-01
   endloop
 endfacet
 facet normal  0.000000e+00 -1.000000e+00  0.000000e+00
   outer loop
     vertex  3.720987e-02 -9.841270e-01  3.720987e-02
     vertex -8.749897e-02 -9.841270e-01 -1.147483e-01
     vertex -7.042373e-02 -9.841270e-01 -1.238752e-01
   endloop
 endfacet
 facet normal  0.000000e+00 -1.000000e+00  0.000000e+00
   outer loop
     vertex  3.720987e-02 -9.841270e-01  3.720987e-02
     vertex -7.042373e-02 -9.841270e-01 -1.238752e-01
     vertex -5.189601e-02 -9.841270e-01 -1.294955e-01
   endloop
 endfacet
 facet normal  0.000000e+00 -1.000000e+00  0.000000e+00
   outer loop
     vertex  3.720987e-02 -9.841270e-01  3.720987e-02
     vertex -5.189601e-02 -9.841270e-01 -1.294955e-01
     vertex -3.262783e-02 -9.841270e-01 -1.313933e-01
   endloop
 endfacet
 facet normal  0.000000e+00 -1.000000e+00  0.000000e+00
   outer loop
     vertex  3.720987e-02 -9.841270e-01  3.720987e-02
     vertex -3.262783e-02 -9.841270e-01 -1.313933e-01
     vertex -1.335965e-02 -9.841270e-01 -1.294955e-01
   endloop
 endfacet
 facet normal  0.000000e+00 -1.000000e+00  0.000000e+00
   outer loop
     vertex  3.720987e-02 -9.841270e-01  3.720987e-02
     vertex -1.335965e-02 -9.841270e-01 -1.294955e-01
     vertex  5.168062e-03 -9.841270e-01 -1.238752e-01
   endloop
 endfacet
 facet normal  0.000000e+00 -1.000000e+00  0.000000e+00
   outer loop
     vertex  3.720987e-02 -9.841270e-01  3.720987e-02
     vertex  5.168062e-03 -9.841270e-01 -1.238752e-01
     vertex  2.224330e-02 -9.841270e-01 -1.147483e-01
   endloop
 endfacet
 facet normal  0.000000e+00 -1.000000e+00 -0.000000e+00
   outer loop
     vertex  3.720987e-02 -9.841270e-01  3.720987e-02
     vertex  2.224330e-02 -9.841270e-01 -1.147483e-01
     vertex  3.720987e-02 -9.841270e-01 -1.024655e-01
   endloop
 endfacet
 facet normal  0.000000e+00 -1.000000e+00  0.000000e+00
   outer loop
     vertex  3.720987e-02 -9.841270e-01  3.720987e-02
     vertex  3.720987e-02 -9.841270e-01 -1.024655e-01
     vertex  4.949262e-02 -9.841270e-01 -8.749897e-02
   endloop
 endfacet
 facet normal  0.000000e+00 -1.000000e+00  0.000000e+00
   outer loop
     vertex  3.720987e-02 -9.841270e-01  3.720987e-02
     vertex  4.949262e-02 -9.841270e-01 -8.749897e-02
     vertex  5.861953e-02 -9.841270e-01 -7.042373e-02
   endloop
 endfacet
 facet normal  0.000000e+00 -1.000000e+00  0.000000e+00
   outer loop
     vertex  3.720987e-02 -9.841270e-01  3.720987e-02
     vertex  5.861953e-02 -9.841270e-01 -7.042373e-02
     vertex  6.423985e-02 -9.841270e-01 -5.189601e-02
   endloop
 endfacet
 facet normal  0.000000e+00 -1.000000e+00  0.000000e+00
   outer loop
     vertex  3.720987e-02 -9.841270e-01  3.720987e-02
     vertex  6.423985e-02 -9.841270e-01 -5.189601e-02
     vertex  6.613760e-02 -9.841270e-01 -3.262783e-02
   endloop
 endfacet
 facet normal  0.000000e+00  1.000000e+00  0.000000e+00
   outer loop
     vertex  3.720987e-02  9.841270e-01  3.720987e-02
     vertex  6.423985e-02  9.841270e-01 -1.335965e-02
     vertex  6.613760e-02  9.841270e-01 -3.262783e-02
   endloop
 endfacet
 facet normal  0.000000e+00  1.000000e+00  0.000000e+00
   outer loop
     vertex  3.720987e-02  9.841270e-01  3.720987e-02
     vertex  5.861953e-02  9.841270e-01  5.168062e-03
     vertex  6.423985e-02  9.841270e-01 -1.335965e-02
   endloop
 endfacet
 facet normal  0.000000e+00  1.000000e+00  0.000000e+00
   outer loop
     vertex  3.720987e-02  9.841270e-01  3.720987e-02
     vertex  4.949262e-02  9.841270e-01  2.224330e-02
     vertex  5.861953e-02  9.841270e-01  5.168062e-03
   endloop
 endfacet
 facet normal  0.000000e+00  1.000000e+00  0.000000e+00
   outer loop
     vertex  3.720987e-02  9.841270e-01  3.720987e-02
     vertex  5.168062e-03  9.841270e-01  5.861953e-02
     vertex  2.224330e-02  9.841270e-01  4.949262e-02
   endloop
 endfacet
 facet normal  0.000000e+00  1.000000e+00  0.000000e+00
   outer loop
     vertex  3.720987e-02  9.841270e-01  3.720987e-02
     vertex -1.335965e-02  9.841270e-01  6.423985e-02
     vertex  5.168062e-03  9.841270e-01  5.861953e-02
   endloop
 endfacet
 facet normal  0.000000e+00  1.000000e+00  0.000000e+00
   outer loop
     vertex  3.720987e-02  9.841270e-01  3.720987e-02
     vertex -3.262783e-02  9.841270e-01  6.613760e-02
     vertex -1.335965e-02  9.841270e-01  6.423985e-02
   endloop
 endfacet
 facet normal  0.000000e+00  1.000000e+00  0.000000e+00
   outer loop
     vertex  3.720987e-02  9.841270e-01  3.720987e-02
     vertex -5.189601e-02  9.841270e-01  6.423985e-02
     vertex -3.262783e-02  9.841270e-01  6.613760e-02
   endloop
 endfacet
 facet normal  0.000000e+00  1.000000e+00  0.000000e+00
   outer loop
     vertex  3.720987e-02  9.841270e-01  3.720987e-02
     vertex -7.042373e-02  9.841270e-01  5.861953e-02
     vertex -5.189601e-02  9.841270e-01  6.423985e-02
   endloop
 endfacet
 facet normal  0.000000e+00  1.000000e+00  0.000000e+00
   outer loop
     vertex  3.720987e-02  9.841270e-01  3.720987e-02
     vertex -8.749897e-02  9.841270e-01  4.949262e-02
     vertex -7.042373e-02  9.841270e-01  5.861953e-02
   endloop
 endfacet
 facet normal  0.000000e+00  1.000000e+00  0.000000e+00
   outer loop
     vertex  3.720987e-02  9.841270e-01  3.720987e-02
     vertex -1.024655e-01  9.841270e-01  3.720987e-02
     vertex -8.749897e-02  9.841270e-01  4.949262e-02
   endloop
 endfacet
 facet normal  0.000000e+00  1.000000e+00  0.000000e+00
   outer loop
     vertex  3.720987e-02  9.841270e-01  3.720987e-02
     vertex -1.147483e-01  9.841270e-01  2.224330e-02
     vertex -1.024655e-01  9.841270e-01  3.720987e-02
   endloop
 endfacet
 facet normal  0.000000e+00  1.000000e+00  0.000000e+00
   outer loop
     vertex  3.720987e-02  9.841270e-01  3.720987e-02
     vertex -1.238752e-01  9.841270e-01  5.168062e-03
     vertex -1.147483e-01  9.841270e-01  2.224330e-02
   endloop
 endfacet
 facet normal  0.000000e+00  1.000000e+00  0.000000e+00
   outer loop
     vertex  3.720987e-02  9.841270e-01  3.720987e-02
     vertex -1.294955e-01  9.841270e-01 -1.335965e-02
     vertex -1.238752e-01  9.841270e-01  5.168062e-03
   endloop
 endfacet
 facet normal  0.000000e+00  1.000000e+00  0.000000e+00
   outer loop
     vertex  3.720987e-02  9.841270e-01  3.720987e-02
     vertex -1.313933e-01  9.841270e-01 -3.262783e-02
     vertex -1.294955e-01  9.841270e-01 -1.335965e-02
   endloop
 endfacet
 facet normal  0.000000e+00  1.000000e+00  0.000000e+00
   outer loop
     vertex  3.720987e-02  9.841270e-01  3.720987e-02
     vertex -1.294955e-01  9.841270e-01 -5.189601e-02
     vertex -1.313933e-01  9.841270e-01 -3.262783e-02
   endloop
 endfacet
 facet normal  0.000000e+00  1.000000e+00  0.000000e+00
   outer loop
     vertex  3.720987e-02  9.841270e-01  3.720987e-02
     vertex -1.238752e-01  9.841270e-01 -7.042373e-02
     vertex -1.294955e-01  9.841270e-01 -5.189601e-02
   endloop
 endfacet
 facet normal  0.000000e+00  1.000000e+00  0.000000e+00
   outer loop
     vertex  3.720987e-02  9.841270e-01  3.720987e-02
     vertex -1.147483e-01  9.841270e-01 -8.749897e-02
     vertex -1.238752e-01  9.841270e-01 -7.042373e-02
   endloop
 endfacet
 facet normal  0.000000e+00  1.000000e+00  0.000000e+00
   outer loop
     vertex  3.720987e-02  9.841270e-01  3.720987e-02
     vertex -1.024655e-01  9.841270e-01 -1.024655e-01
     vertex -1.147483e-01  9.841270e-01 -8.749897e-02
   endloop
 endfacet
 facet normal  0.000000e+00  1.000000e+00  0.000000e+00
   outer loop
     vertex  3.720987e-02  9.841270e-01  3.720987e-02
     vertex -8.749897e-02  9.841270e-01 -1.147483e-01
     vertex -1.024655e-01  9.841270e-01 -1.024655e-01
   endloop
 endfacet
 facet normal  0.000000e+00  1.000000e+00  0.000000e+00
   outer loop
     vertex  3.720987e-02  9.841270e-01  3.720987e-02
     vertex -7.042373e-02  9.841270e-01 -1.238752e-01
     vertex -8.749897e-02  9.841270e-01 -1.147483e-01
   endloop
 endfacet
 facet normal  0.000000e+00  1.000000e+00  0.000000e+00
   outer loop
     vertex  3.720987e-02  9.841270e-01  3.720987e-02
     vertex -5.189601e-02  9.841270e-01 -1.294955e-01
     vertex -7.042373e-02  9.841270e-01 -1.238752e-01
   endloop
 endfacet
 facet normal  0.000000e+00  1.000000e+00  0.000000e+00
   outer loop
     vertex  3.720987e-02  9.841270e-01  3.720987e-02
     vertex -3.262783e-02  9.841270e-01 -1.313933e-01
     vertex -5.189601e-02  9.841270e-01 -1.294955e-01
   endloop
 endfacet
 facet normal  0.000000e+00  1.000000e+00  0.000000e+00
   outer loop
     vertex  3.720987e-02  9.841270e-01  3.720987e-02
     vertex -1.335965e-02  9.841270e-01 -1.294955e-01
     vertex -3.262783e-02  9.841270e-01 -1.313933e-01
   endloop
 endfacet
 facet normal  0.000000e+00  1.000000e+00  0.000000e+00
   outer loop
     vertex  3.720987e-02  9.841270e-01  3.720987e-02
     vertex  5.168062e-03  9.841270e-01 -1.238752e-01
     vertex -1.335965e-02  9.841270e-01 -1.294955e-01
   endloop
 endfacet
 facet normal  0.000000e+00  1.000000e+00  0.000000e+00
   outer loop
     vertex  3.720987e-02  9.841270e-01  3.720987e-02
     vertex  2.224330e-02  9.841270e-01 -1.147483e-01
     vertex  5.168062e-03  9.841270e-01 -1.238752e-01
   endloop
 endfacet
 facet normal  0.000000e+00  1.000000e+00  0.000000e+00
   outer loop
     vertex  3.720987e-02  9.841270e-01  3.720987e-02
     vertex  3.720987e-02  9.841270e-01 -1.024655e-01
     vertex  2.224330e-02  9.841270e-01 -1.147483e-01
   endloop
 endfacet
 facet normal  0.000000e+00  1.000000e+00  0.000000e+00
   outer loop
     vertex  3.720987e-02  9.841270e-01  3.720987e-02
     vertex  4.949262e-02  9.841270e-01 -8.749897e-02
     vertex  3.720987e-02  9.841270e-01 -1.024655e-01
   endloop
 endfacet
 facet normal  0.000000e+00  1.000000e+00  0.000000e+00
   outer loop
     vertex  3.720987e-02  9.841270e-01  3.720987e-02
     vertex  5.861953e-02  9.841270e-01 -7.042373e-02
     vertex  4.949262e-02  9.841270e-01 -8.749897e-02
   endloop
 endfacet
 facet normal  0.000000e+00  1.000000e+00  0.000000e+00
   outer loop
     vertex  3.720987e-02  9.841270e-01  3.720987e-02
     vertex  6.423985e-02  9.841270e-01 -5.189601e-02
     vertex  5.861953e-02  9.841270e-01 -7.042373e-02
   endloop
 endfacet
 facet normal  0.000000e+00  1.000000e+00  0.000000e+00
   outer loop
     vertex  3.720987e-02  9.841270e-01  3.720987e-02
     vertex  6.613760e-02  9.841270e-01 -3.262783e-02
     vertex  6.423985e-02  9.841270e-01 -5.189601e-02
   endloop
 endfacet
endsolid
